<?xml version="1.0" encoding="UTF-8"?>
<svg id="Layer_1" data-name="Layer 1" xmlns="http://www.w3.org/2000/svg" viewBox="0 0 150 150">
  <defs>
    <style>
      .cls-1 {
        stroke-width: 0px;
      }
    </style>
  </defs>
  <g>
    <path class="cls-1" d="M55.68,35.16c-.19,0-.38,0-.56-.02-.28-.02-.48-.26-.46-.54s.28-.48.54-.46c1.24.09,2.49-.16,3.6-.74.25-.13.55-.03.67.22.13.25.03.55-.21.67-1.1.57-2.33.86-3.57.86ZM51.44,33.8c-.1,0-.2-.03-.29-.09-1.17-.83-2.08-1.97-2.64-3.29-.11-.25,0-.55.26-.66.25-.11.55,0,.66.26.49,1.15,1.29,2.14,2.31,2.87.22.16.28.47.12.7-.1.14-.25.21-.41.21ZM61.91,31.66c-.09,0-.18-.02-.26-.07-.24-.14-.31-.45-.17-.69.65-1.06.99-2.29.99-3.54,0-.28.22-.5.5-.5s.5.22.5.5c0,1.44-.39,2.84-1.14,4.06-.09.15-.26.24-.43.24ZM48.45,26.81s-.05,0-.07,0c-.27-.04-.46-.29-.42-.57.2-1.42.8-2.75,1.71-3.86.18-.21.49-.24.7-.07.21.18.24.49.07.7-.8.96-1.32,2.13-1.49,3.36-.04.25-.25.43-.49.43ZM62.74,25.98c-.22,0-.42-.15-.48-.37-.32-1.21-.97-2.3-1.87-3.17-.2-.19-.21-.51-.02-.71.19-.2.51-.21.71-.02,1.04.99,1.78,2.25,2.15,3.63.07.27-.09.54-.35.61-.04.01-.09.02-.13.02ZM53.3,20.95c-.21,0-.4-.13-.47-.34-.09-.26.05-.55.31-.64,1.34-.46,2.83-.55,4.21-.24.27.06.44.33.38.6-.06.27-.32.44-.59.38-1.21-.26-2.5-.19-3.67.21-.05.02-.11.03-.16.03Z"/>
    <path class="cls-1" d="M106.89,86.17c-1.29,0-2.59-.25-3.75-.74-.25-.11-.38-.4-.27-.65.11-.26.4-.38.65-.27,1.14.47,2.43.7,3.7.66,0,0,.01,0,.02,0,.27,0,.49.21.5.48,0,.28-.21.51-.48.52-.12,0-.24,0-.37,0ZM111.08,85.17c-.18,0-.36-.1-.45-.27-.13-.25-.03-.55.22-.67,1.12-.57,2.12-1.4,2.9-2.39.17-.22.49-.25.7-.08.22.17.25.48.08.7-.87,1.1-1.98,2.02-3.23,2.66-.07.04-.15.05-.23.05ZM115.87,79.07s-.08,0-.11-.01c-.27-.06-.44-.33-.37-.6.15-.65.23-1.33.23-2.01,0-.59-.06-1.18-.17-1.75-.05-.27.12-.53.39-.59.27-.05.54.12.59.39.13.64.19,1.29.19,1.95,0,.76-.09,1.51-.26,2.24-.05.23-.26.39-.49.39ZM98.87,72.41c-.08,0-.17-.02-.25-.06-.24-.14-.33-.44-.19-.68.41-.73.92-1.41,1.5-2.01.19-.2.51-.2.71,0,.2.19.2.51,0,.71-.53.54-.98,1.15-1.35,1.81-.09.16-.26.26-.44.26ZM114.32,71.48c-.15,0-.3-.07-.4-.2-.75-1.01-1.72-1.87-2.82-2.48-.24-.13-.33-.44-.2-.68.13-.24.44-.33.68-.2,1.22.68,2.31,1.63,3.14,2.76.16.22.12.54-.11.7-.09.07-.19.1-.3.1ZM103.61,68.32c-.2,0-.39-.12-.47-.32-.1-.26.03-.55.29-.65,1.32-.5,2.74-.71,4.14-.61.28.02.48.26.46.53-.02.28-.27.47-.53.46-1.26-.09-2.53.1-3.71.55-.06.02-.12.03-.18.03Z"/>
    <path class="cls-1" d="M36.5,59.48c-.8,0-1.6-.08-2.38-.24-.27-.06-.44-.32-.39-.59.06-.27.33-.44.59-.39,1.24.26,2.55.29,3.8.1.27-.04.53.15.57.42.04.27-.15.53-.42.57-.58.09-1.18.13-1.77.13ZM41.96,58.07c-.17,0-.35-.09-.44-.26-.13-.24-.05-.55.19-.68,1.12-.62,2.11-1.43,2.95-2.4.18-.21.5-.23.71-.05.21.18.23.5.05.71-.91,1.06-2,1.94-3.22,2.62-.08.04-.16.06-.24.06ZM30.52,57.77c-.09,0-.18-.02-.27-.08-1.18-.74-2.22-1.68-3.08-2.79-.17-.22-.13-.53.09-.7.22-.17.53-.13.7.09.79,1.02,1.73,1.87,2.82,2.55.23.15.3.46.16.69-.09.15-.26.23-.42.23ZM47.06,52.13c-.06,0-.12,0-.17-.03-.26-.1-.39-.38-.29-.64.44-1.2.67-2.45.67-3.74,0-.28.22-.5.5-.5s.5.22.5.5c0,1.41-.25,2.78-.73,4.09-.08.2-.27.33-.47.33ZM25.74,51.57c-.21,0-.41-.14-.48-.35-.35-1.13-.53-2.31-.53-3.5,0-.21,0-.41.02-.62.02-.27.23-.5.53-.47.28.01.49.25.47.53,0,.19-.01.38-.01.57,0,1.09.16,2.17.49,3.21.08.26-.07.54-.33.63-.05.02-.1.02-.15.02ZM47.42,45.43c-.22,0-.43-.15-.48-.38-.31-1.24-.84-2.4-1.58-3.46-.16-.23-.1-.54.13-.7.23-.16.54-.1.7.13.8,1.16,1.38,2.43,1.72,3.78.07.27-.09.54-.36.61-.04.01-.08.02-.12.02ZM26.15,43.75c-.07,0-.13-.01-.2-.04-.25-.11-.37-.4-.26-.66.55-1.28,1.33-2.45,2.3-3.46.19-.2.51-.21.71-.02.2.19.21.51.02.71-.89.93-1.59,2-2.1,3.17-.08.19-.27.3-.46.3ZM42.96,38.99c-.1,0-.2-.03-.29-.09-1.05-.74-2.21-1.28-3.45-1.6-.27-.07-.43-.34-.36-.61.07-.27.34-.43.61-.36,1.35.35,2.62.94,3.77,1.75.23.16.28.47.12.7-.1.14-.25.21-.41.21ZM31.56,38.09c-.18,0-.36-.1-.45-.28-.12-.25-.02-.55.23-.67,1.26-.61,2.6-.99,4-1.13.27-.03.52.17.55.45.03.27-.17.52-.45.55-1.28.12-2.51.47-3.66,1.03-.07.03-.15.05-.22.05Z"/>
    <path class="cls-1" d="M37.11,91.15c-1.05,0-2.09-.14-3.09-.41-.27-.07-.42-.35-.35-.61.07-.27.34-.43.61-.35,1.22.33,2.54.44,3.79.33.26-.03.52.18.54.45.02.28-.18.52-.45.54-.34.03-.69.05-1.04.05ZM41.95,90.06c-.19,0-.37-.1-.45-.29-.12-.25-.01-.55.24-.67,1.15-.55,2.19-1.29,3.09-2.22.19-.2.51-.2.71,0,.2.19.2.51,0,.71-.98,1.01-2.11,1.82-3.38,2.42-.07.03-.14.05-.21.05ZM30.56,89.05c-.1,0-.2-.03-.29-.09-1.14-.81-2.11-1.82-2.9-2.98-.16-.23-.09-.54.13-.69.23-.15.54-.09.69.13.72,1.06,1.61,1.98,2.65,2.72.22.16.28.47.12.7-.1.14-.25.21-.41.21ZM47.41,84.45c-.07,0-.14-.01-.2-.04-.25-.11-.37-.41-.25-.66.11-.25.21-.51.31-.77.09-.26.38-.39.64-.31.26.09.4.38.31.64-.1.29-.21.57-.34.84-.08.19-.27.3-.46.3ZM26.17,82.56c-.23,0-.43-.15-.49-.38-.22-.91-.33-1.86-.33-2.8,0-.45.03-.9.08-1.34.03-.28.29-.48.55-.44.27.03.47.28.44.55-.05.4-.07.82-.07,1.23,0,.87.1,1.73.31,2.57.06.27-.1.54-.37.6-.04,0-.08.01-.12.01ZM27.06,74.78c-.08,0-.15-.02-.23-.05-.25-.12-.34-.43-.22-.67.63-1.25,1.48-2.36,2.5-3.31.2-.19.52-.18.71.03s.17.52-.03.71c-.94.87-1.71,1.89-2.29,3.03-.09.17-.26.27-.45.27ZM44.14,71.07c-.11,0-.22-.04-.31-.11-1-.8-2.12-1.41-3.34-1.81-.26-.09-.4-.37-.32-.63.09-.26.37-.41.63-.32,1.33.44,2.56,1.11,3.65,1.98.22.17.25.49.08.7-.1.12-.24.19-.39.19ZM32.81,69.46c-.2,0-.38-.12-.46-.31-.11-.26.02-.55.27-.65,1.29-.53,2.66-.83,4.06-.88.26-.03.51.21.52.48,0,.28-.21.51-.48.52-1.29.05-2.54.32-3.72.8-.06.03-.13.04-.19.04Z"/>
    <path class="cls-1" d="M60.43,91.63s-.06,0-.08,0c-1.35-.23-2.67-.6-3.95-1.1-.26-.1-.38-.39-.28-.65s.39-.38.65-.28c1.21.47,2.47.82,3.75,1.04.27.05.46.3.41.58-.04.24-.25.42-.49.42ZM53.04,88.73c-.09,0-.19-.03-.27-.08-1.14-.74-2.21-1.61-3.19-2.57-.2-.19-.2-.51,0-.71.19-.2.51-.2.71,0,.92.91,1.94,1.74,3.03,2.44.23.15.3.46.15.69-.1.15-.26.23-.42.23ZM47.39,83.15c-.16,0-.32-.08-.42-.22-.76-1.14-1.41-2.36-1.92-3.62-.1-.26.02-.55.28-.65.25-.1.55.02.65.28.48,1.2,1.1,2.36,1.82,3.44.15.23.09.54-.14.69-.08.06-.18.08-.28.08ZM44.41,75.78c-.24,0-.45-.17-.49-.41-.21-1.18-.32-2.39-.32-3.6,0-.16,0-.32,0-.48,0-.27.23-.49.5-.49h.01c.28,0,.49.24.49.51,0,.15,0,.3,0,.46,0,1.15.1,2.3.3,3.42.05.27-.13.53-.4.58-.03,0-.06,0-.09,0ZM44.6,67.84s-.07,0-.11-.01c-.27-.06-.44-.33-.38-.6.31-1.33.75-2.63,1.32-3.87.12-.25.41-.36.66-.25.25.12.36.41.25.66-.54,1.18-.96,2.42-1.26,3.68-.05.23-.26.39-.49.39ZM82.7,67.04c-.22,0-.42-.15-.48-.37-.34-1.25-.82-2.47-1.41-3.63-.13-.25-.03-.55.22-.67.25-.13.55-.03.67.22.62,1.21,1.12,2.5,1.49,3.82.07.27-.08.54-.35.61-.04.01-.09.02-.13.02ZM47.92,60.62c-.1,0-.21-.03-.3-.1-.22-.16-.27-.48-.11-.7.81-1.1,1.73-2.12,2.75-3.03.21-.18.52-.17.71.04.19.21.17.52-.04.71-.96.87-1.84,1.84-2.61,2.88-.1.13-.25.2-.4.2ZM79.08,59.96c-.15,0-.29-.06-.39-.19-.81-1.01-1.73-1.94-2.73-2.77-.21-.18-.24-.49-.07-.7.18-.21.49-.24.7-.07,1.05.87,2.02,1.85,2.87,2.92.17.22.14.53-.08.7-.09.07-.2.11-.31.11ZM53.82,55.3c-.17,0-.34-.09-.43-.25-.14-.24-.06-.54.18-.68,1.18-.69,2.43-1.26,3.72-1.7.26-.09.55.05.63.31.09.26-.05.55-.31.63-1.23.42-2.42.96-3.54,1.62-.08.05-.17.07-.25.07ZM72.96,54.9c-.08,0-.16-.02-.23-.06-1.15-.61-2.36-1.1-3.6-1.46-.27-.08-.42-.35-.34-.62.08-.27.35-.42.62-.34,1.31.38,2.58.9,3.79,1.54.24.13.34.43.21.68-.09.17-.26.27-.44.27ZM61.35,52.76c-.25,0-.46-.19-.5-.44-.03-.27.16-.52.44-.56,1.36-.17,2.75-.19,4.09-.09.28.02.48.26.46.54-.02.28-.26.48-.54.46-1.27-.1-2.6-.08-3.89.08-.02,0-.04,0-.06,0Z"/>
    <path class="cls-1" d="M81.51,106.3s-.02,0-.03,0c-1.37-.08-2.73-.29-4.04-.64-.27-.07-.43-.34-.36-.61.07-.27.34-.43.61-.35,1.25.33,2.54.54,3.84.61.28.02.49.25.47.53-.01.27-.24.47-.5.47ZM85.5,106.13c-.24,0-.46-.18-.49-.43-.04-.27.15-.53.42-.57,1.28-.19,2.55-.51,3.77-.95.26-.09.55.04.64.3s-.04.55-.3.64c-1.28.47-2.62.81-3.97,1-.02,0-.05,0-.07,0ZM73.84,104.26c-.08,0-.15-.02-.22-.05-1.22-.61-2.38-1.35-3.46-2.2-.22-.17-.25-.49-.08-.7.17-.22.49-.25.7-.08,1.02.81,2.13,1.51,3.28,2.09.25.12.35.42.22.67-.09.17-.26.28-.45.28ZM92.96,103.4c-.17,0-.33-.08-.42-.24-.15-.23-.07-.54.16-.69,1.1-.68,2.14-1.48,3.08-2.37.2-.19.52-.18.71.02.19.2.18.52-.02.71-.99.94-2.09,1.78-3.25,2.5-.08.05-.17.07-.26.07ZM67.6,99.34c-.14,0-.28-.06-.38-.18-.88-1.05-1.66-2.18-2.31-3.38-.13-.24-.04-.55.2-.68.24-.13.54-.04.68.2.62,1.14,1.36,2.22,2.19,3.21.18.21.15.53-.06.7-.09.08-.21.12-.32.12ZM98.74,97.95c-.1,0-.2-.03-.29-.09-.23-.16-.28-.47-.12-.7.75-1.07,1.38-2.21,1.9-3.4.11-.25.4-.37.66-.26.25.11.37.4.26.66-.54,1.25-1.21,2.45-2,3.57-.1.14-.25.21-.41.21ZM63.81,92.36c-.21,0-.41-.14-.48-.36-.39-1.31-.65-2.66-.78-4.02-.02-.28.18-.52.45-.54.26-.03.52.18.54.45.12,1.29.36,2.58.74,3.82.08.26-.07.54-.33.62-.05.01-.1.02-.14.02ZM101.88,90.66s-.07,0-.1-.01c-.27-.06-.44-.32-.39-.59.26-1.27.39-2.57.39-3.87,0-1.15-.1-2.3-.3-3.42-.05-.27.13-.53.4-.58.27-.05.53.13.58.4.21,1.18.32,2.39.32,3.6,0,1.37-.14,2.74-.41,4.07-.05.24-.26.4-.49.4ZM63.11,84.45s-.04,0-.06,0c-.27-.03-.47-.28-.44-.55.15-1.36.45-2.71.87-4,.08-.26.37-.41.63-.32.26.09.41.37.32.63-.4,1.23-.68,2.51-.83,3.8-.03.26-.25.44-.5.44ZM100.87,79.34c-.2,0-.38-.12-.46-.31-.48-1.2-1.09-2.36-1.81-3.44-.15-.23-.09-.54.14-.69.23-.15.54-.09.69.14.76,1.14,1.4,2.36,1.91,3.62.1.26-.02.55-.28.65-.06.02-.12.04-.19.04ZM65.58,76.91c-.08,0-.17-.02-.25-.07-.24-.14-.32-.44-.18-.68.68-1.18,1.48-2.3,2.39-3.32.18-.21.5-.23.71-.04.21.18.23.5.04.71-.86.97-1.62,2.04-2.27,3.16-.09.16-.26.25-.43.25ZM96.47,72.73c-.13,0-.25-.05-.35-.15-.92-.91-1.94-1.74-3.03-2.45-.23-.15-.3-.46-.15-.69.15-.23.46-.3.69-.15,1.14.75,2.21,1.61,3.18,2.57.2.19.2.51,0,.71-.1.1-.23.15-.36.15ZM70.84,70.96c-.15,0-.3-.07-.4-.2-.17-.22-.12-.53.1-.7,1.09-.82,2.27-1.53,3.51-2.11.25-.12.55-.01.67.24.12.25.01.55-.24.67-1.17.55-2.29,1.23-3.33,2.01-.09.07-.2.1-.3.1ZM89.81,68.39c-.06,0-.12-.01-.18-.03-1.21-.47-2.46-.82-3.75-1.04-.27-.05-.46-.3-.41-.58.05-.27.31-.45.58-.41,1.35.23,2.68.6,3.94,1.1.26.1.38.39.28.65-.08.2-.27.32-.46.32ZM78.03,67.57c-.23,0-.43-.15-.49-.38-.06-.27.1-.54.37-.6,1.32-.32,2.69-.5,4.05-.54.31-.04.51.21.52.48,0,.28-.21.51-.48.52-1.3.04-2.6.22-3.86.52-.04,0-.08.01-.12.01Z"/>
  </g>
  <path class="cls-1" d="M142.37,81.98c-.44-.44-.98-.79-1.57-1.01v-.28H10.72c-1.11,0-2.13.41-2.9,1.11-.06.04-.13.11-.19.17-.79.79-1.28,1.89-1.28,3.1v3.99c0,1.21.49,2.3,1.28,3.1h0c.8.79,1.9,1.29,3.1,1.29h3.77l4.83,18.4c1.17,4.5,3.13,7.96,6,10.33,1.64,1.37,3.56,2.34,5.75,2.94v3.17c0,1.18.96,2.13,2.13,2.13h5.24c1.18,0,2.13-.96,2.13-2.13v-2.47h68.83v2.47c0,1.18.96,2.13,2.13,2.13h5.24c1.18,0,2.13-.96,2.13-2.13v-3.23c2.26-.61,4.31-1.58,6.07-2.92,3.12-2.38,5.32-5.86,6.29-10.41l3.92-18.29h4.08c1.2,0,2.3-.5,3.09-1.29.79-.8,1.29-1.89,1.29-3.1v-3.99c0-1.21-.5-2.32-1.29-3.1Z"/>
</svg>