<?xml version="1.0" encoding="UTF-8"?>
<svg id="Layer_1" data-name="Layer 1" xmlns="http://www.w3.org/2000/svg" viewBox="0 0 150 150">
  <defs>
    <style>
      .cls-1, .cls-2 {
        stroke-width: 0px;
      }

      .cls-2 {
        fill-rule: evenodd;
      }
    </style>
  </defs>
  <g>
    <path class="cls-1" d="M101.29,103.23s-.03,0-.04,0c-.61-.05-1.23-.15-1.83-.31-.71-.09-1.47-.26-2.21-.51-.26-.09-.4-.37-.32-.63.09-.26.37-.4.63-.32.68.23,1.38.39,2.08.48.6.15,1.16.25,1.71.29.27.02.48.26.46.54-.02.26-.24.46-.5.46ZM105.24,102.74c-.21,0-.4-.13-.47-.34-.09-.26.05-.55.31-.63,1.21-.41,2.31-1.05,3.26-1.9.21-.18.52-.17.71.04.18.21.17.52-.04.71-1.05.94-2.27,1.65-3.6,2.1-.05.02-.11.03-.16.03ZM93.68,100.92c-.06,0-.13-.01-.19-.04l-3.69-1.54c-.25-.11-.38-.4-.27-.65.11-.26.4-.38.65-.27l3.69,1.54c.25.11.38.4.27.65-.08.19-.27.31-.46.31ZM86.29,97.85c-.06,0-.13-.01-.19-.04l-3.69-1.54c-.25-.11-.38-.4-.27-.65.11-.26.4-.37.65-.27l3.69,1.54c.25.11.38.4.27.65-.08.19-.27.31-.46.31ZM111.04,97.55c-.07,0-.14-.02-.21-.05-.25-.12-.36-.41-.24-.66.28-.6.5-1.23.65-1.88.13-.58.21-1.18.23-1.78,0-.28.23-.48.51-.49.28,0,.49.24.49.51-.02.67-.1,1.33-.25,1.98-.17.72-.41,1.42-.71,2.08-.08.18-.27.29-.45.29ZM78.9,94.78c-.06,0-.13-.01-.19-.04l-3.69-1.54c-.25-.11-.38-.4-.27-.65.11-.26.4-.37.65-.27l3.69,1.54c.25.11.38.4.27.65-.08.19-.27.31-.46.31ZM111.26,89.77c-.2,0-.39-.12-.46-.32-.46-1.17-1.17-2.27-2.05-3.17-.19-.2-.19-.51,0-.71.2-.19.52-.19.71.01.97,1,1.75,2.21,2.26,3.5.1.26-.02.55-.28.65-.06.02-.12.04-.18.04ZM94.8,86.63c-.12,0-.24-.04-.34-.13-.2-.19-.21-.5-.03-.71.96-1.03,2.1-1.85,3.39-2.43.25-.11.55,0,.66.25.11.25,0,.55-.25.66-1.17.52-2.2,1.26-3.07,2.19-.1.11-.23.16-.37.16ZM105.82,84.2c-.06,0-.13-.01-.19-.04-.35-.15-.72-.27-1.09-.37-.81-.22-1.65-.33-2.48-.33h-.14s0,0,0,0c-.27,0-.5-.22-.5-.5,0-.28.22-.5.5-.5h.14c.93,0,1.85.12,2.75.37.41.11.82.25,1.21.41.25.11.38.4.27.65-.08.19-.27.31-.46.31Z"/>
    <path class="cls-1" d="M81.69,128.99c-.28,0-.5-.22-.5-.5s.22-.5.5-.5c1.28,0,2.52-.25,3.7-.75.25-.11.55.01.65.27s-.01.55-.27.65c-1.3.54-2.68.82-4.09.82h0ZM77.8,128.2c-.07,0-.13-.01-.2-.04-.39-.17-.77-.36-1.14-.58-.85-.5-1.61-1.11-2.28-1.81-.19-.2-.18-.52.02-.71.2-.19.52-.18.71.02.6.64,1.3,1.19,2.06,1.64.33.19.67.37,1.03.52.25.11.37.4.26.66-.08.19-.27.3-.46.3ZM88.88,125.98c-.13,0-.25-.05-.35-.14-.2-.19-.2-.51,0-.71.42-.43.79-.91,1.12-1.41.36-.56.67-1.16.9-1.78.1-.26.39-.39.64-.29.26.1.39.39.29.65-.26.68-.59,1.34-.99,1.96-.36.56-.78,1.08-1.24,1.56-.1.1-.23.15-.36.15ZM72.45,122.55c-.2,0-.39-.12-.47-.33-.43-1.16-.64-2.37-.64-3.61,0-.17,0-.34.01-.52.01-.28.24-.49.52-.48.28.01.49.25.48.52,0,.16-.01.31-.01.47,0,1.12.2,2.21.58,3.26.1.26-.04.55-.3.64-.06.02-.12.03-.17.03ZM91.63,118.7c-.27,0-.49-.21-.5-.48-.06-1.28-.36-2.51-.91-3.66-.12-.25-.01-.55.24-.67.25-.12.55-.01.67.24.61,1.27.95,2.64,1.01,4.05.01.28-.2.51-.48.52,0,0-.01,0-.02,0ZM88.26,111.68c-.12,0-.23-.04-.33-.12-.42-.37-.87-.7-1.35-.99-.61-.48-1.21-.87-1.85-1.19-.25-.13-.34-.43-.22-.67.13-.25.43-.34.67-.22.69.35,1.35.78,1.96,1.26.48.28.98.65,1.44,1.05.21.18.23.5.05.71-.1.11-.24.17-.38.17ZM81.3,107.84c-.07,0-.13-.01-.2-.04l-3.68-1.57c-.25-.11-.37-.4-.26-.66.11-.25.4-.37.66-.26l3.68,1.57c.25.11.37.4.26.66-.08.19-.27.3-.46.3ZM73.94,104.69c-.07,0-.13-.01-.2-.04l-3.68-1.57c-.25-.11-.37-.4-.26-.66.11-.25.41-.37.66-.26l3.68,1.57c.25.11.37.4.26.66-.08.19-.27.3-.46.3ZM66.59,101.55c-.07,0-.13-.01-.2-.04l-3.68-1.57c-.25-.11-.37-.4-.26-.66.11-.25.4-.37.66-.26l3.68,1.57c.25.11.37.4.26.66-.08.19-.27.3-.46.3ZM59.23,98.4c-.07,0-.13-.01-.2-.04l-3.68-1.57c-.25-.11-.37-.4-.26-.66.11-.25.4-.37.66-.26l3.68,1.57c.25.11.37.4.26.66-.08.19-.27.3-.46.3Z"/>
    <path class="cls-1" d="M115.85,136.7c-.06,0-.13,0-.19,0-3.02-.06-5.77-1.34-7.72-3.61-1.93-2.24-2.82-5.21-2.43-8.14.16-1.18.51-2.32,1.04-3.37.13-.25.43-.34.67-.22.25.13.34.43.22.67-.49.95-.8,1.98-.94,3.05-.35,2.65.45,5.33,2.2,7.35,1.77,2.05,4.25,3.21,6.98,3.27,4.31.07,8.25-2.93,9.27-7.16.64-2.67.11-5.46-1.47-7.68-.14-.2-.36-.44-.66-.7-.9-.81-1.99-1.5-3.25-2.03l-57.25-24.33c-.25-.11-.37-.4-.26-.66.11-.25.4-.37.66-.26l57.25,24.33c1.36.58,2.54,1.32,3.53,2.21.35.32.62.61.81.87,1.74,2.45,2.34,5.55,1.63,8.49-1.11,4.62-5.33,7.93-10.07,7.93Z"/>
  </g>
  <path class="cls-2" d="M23.79,102.05L28.17,15.95c-.06-1.4,1.03-2.59,2.43-2.65.71-.03,1.4.24,1.91.74l61.44,60.96h0c1,.99,1.01,2.59.02,3.59-.46.47-1.08.73-1.73.75l-36.05,1.17-14.66-37.05,11.33,37.91-24.87,22.73c-1.07.91-2.67.78-3.58-.29-.42-.49-.64-1.13-.6-1.77Z"/>
</svg>