<?xml version="1.0" encoding="UTF-8"?>
<svg id="Layer_1" data-name="Layer 1" xmlns="http://www.w3.org/2000/svg" viewBox="0 0 150 150">
  <defs>
    <style>
      .cls-1, .cls-2 {
        stroke-width: 0px;
      }

      .cls-2 {
        fill: #010101;
      }
    </style>
  </defs>
  <circle class="cls-2" cx="75" cy="65.32" r="23.92"/>
  <path class="cls-2" d="M76.67,99.2c-5.76,0-14.3-.72-23.9-3.91-18.92-6.28-31.46-18.53-38.66-27.71l-.25-.31.25-.31c.18-.22,18.5-22.56,38.65-29.25,13.76-4.57,25.34-4.07,29.68-3.64,29.98,2.98,53.21,31.48,53.44,31.76l.24.3-.23.31c-3.95,5.27-10.66,12.96-20.16,19.66l-.58-.82c9.21-6.49,15.76-13.93,19.7-19.13-2.56-3.05-24.6-28.33-52.51-31.1-4.27-.42-15.69-.91-29.26,3.6-18.58,6.17-35.66,25.92-37.93,28.62,7.15,9.03,19.47,20.93,37.93,27.06,13.57,4.51,24.99,4.02,29.26,3.6,8.45-.85,16.72-3.39,24.56-7.56l.47.88c-7.96,4.23-16.35,6.82-24.93,7.68-1.31.13-3.29.26-5.78.26Z"/>
  <g>
    <path class="cls-1" d="M112.82,78.53c-.21,0-.4-.13-.47-.34l-.18-.51-.18.51c-.09.26-.37.4-.63.31-.26-.09-.4-.37-.31-.64l1.12-3.27,1.12,3.27c.09.26-.05.55-.31.64-.05.02-.11.03-.16.03Z"/>
    <path class="cls-1" d="M112.18,125.27c-.36,0-.71-.01-1.06-.04-.37-.03-.72-.08-1.08-.14-.27-.05-.46-.31-.41-.58.05-.27.3-.46.58-.41.32.06.65.1.99.12.65.05,1.31.05,1.96,0,.33-.03.64-.07.96-.12.26-.04.53.14.58.41.05.27-.14.53-.41.58-.34.06-.69.1-1.05.13-.35.03-.7.04-1.06.04ZM118.02,123.72c-.17,0-.34-.09-.43-.25-.14-.24-.06-.54.18-.68,1.12-.66,2.12-1.51,2.96-2.53.18-.21.49-.24.7-.07.21.18.24.49.07.7-.92,1.11-2.01,2.04-3.23,2.75-.08.05-.17.07-.25.07ZM106.31,123.7c-.09,0-.17-.02-.25-.07-1.22-.72-2.3-1.65-3.22-2.76-.18-.21-.15-.53.07-.7.21-.17.53-.15.7.07.84,1.02,1.84,1.88,2.96,2.54.24.14.32.45.18.68-.09.16-.26.25-.43.25ZM123.16,117.55c-.06,0-.12-.01-.18-.03-.26-.1-.39-.39-.29-.65.47-1.23.73-2.52.77-3.83.01-.28.25-.49.52-.48.28,0,.49.24.48.52-.05,1.42-.33,2.82-.84,4.15-.08.2-.27.32-.47.32ZM101.18,117.52c-.2,0-.39-.12-.47-.32-.5-1.34-.78-2.73-.83-4.15,0-.28.21-.51.48-.52.31-.02.51.21.52.48.04,1.31.3,2.6.76,3.83.1.26-.03.55-.29.64-.06.02-.12.03-.18.03ZM123.44,109.52c-.21,0-.41-.14-.48-.36-.04-.14-.08-.27-.13-.41l-1.18-3.45c-.09-.26.05-.55.31-.64.26-.09.54.05.63.31l1.18,3.45c.05.15.1.3.14.44.08.26-.07.54-.33.62-.05.01-.1.02-.14.02ZM100.92,109.49s-.1,0-.15-.02c-.26-.08-.41-.36-.33-.63.04-.14.09-.27.13-.41l1.19-3.48c.09-.26.37-.4.63-.31.26.09.4.37.31.64l-1.19,3.48c-.04.13-.08.25-.12.38-.07.21-.26.35-.48.35ZM120.79,101.78c-.21,0-.4-.13-.47-.34l-1.33-3.87c-.09-.26.05-.55.31-.64.26-.09.54.05.63.31l1.33,3.87c.09.26-.05.55-.31.64-.05.02-.11.03-.16.03ZM103.57,101.75c-.05,0-.11,0-.16-.03-.26-.09-.4-.37-.31-.64l1.33-3.87c.09-.26.37-.4.63-.31.26.09.4.37.31.64l-1.33,3.87c-.07.21-.26.34-.47.34ZM118.14,94.04c-.21,0-.4-.13-.47-.34l-1.33-3.87c-.09-.26.05-.55.31-.64.26-.09.54.05.63.31l1.33,3.87c.09.26-.05.55-.31.64-.05.02-.11.03-.16.03ZM106.22,94.01c-.05,0-.11,0-.16-.03-.26-.09-.4-.37-.31-.64l1.33-3.87c.09-.26.37-.4.63-.31.26.09.4.37.31.64l-1.33,3.87c-.07.21-.26.34-.47.34ZM115.49,86.3c-.21,0-.4-.13-.47-.34l-1.33-3.87c-.09-.26.05-.55.31-.64.26-.09.55.05.63.31l1.33,3.87c.09.26-.05.55-.31.64-.05.02-.11.03-.16.03ZM108.88,86.27c-.05,0-.11,0-.16-.03-.26-.09-.4-.37-.31-.64l1.33-3.87c.09-.26.37-.4.63-.31.26.09.4.37.31.64l-1.33,3.87c-.07.21-.26.34-.47.34Z"/>
  </g>
  <g>
    <path class="cls-1" d="M85.1,113.57c-.21,0-.4-.13-.47-.34l-.18-.51-.18.51c-.09.26-.37.4-.63.31-.26-.09-.4-.37-.31-.64l1.12-3.27,1.12,3.27c.09.26-.05.55-.31.64-.05.02-.11.03-.16.03Z"/>
    <path class="cls-1" d="M86.37,148c-.23,0-.44-.16-.49-.39-.06-.27.11-.54.38-.6,1.21-.26,2.31-.79,3.28-1.57.22-.17.53-.14.7.08s.14.53-.08.7c-1.09.88-2.34,1.47-3.69,1.77-.04,0-.07.01-.11.01ZM82.5,147.99s-.07,0-.11-.01c-1.36-.3-2.6-.9-3.69-1.78-.21-.17-.25-.49-.08-.7.17-.22.49-.25.7-.08.97.78,2.07,1.31,3.28,1.58.27.06.44.33.38.6-.05.23-.26.39-.49.39ZM92.29,143.31c-.08,0-.15-.02-.23-.05-.25-.12-.34-.43-.22-.67.55-1.1.88-2.32.95-3.54.01-.28.26-.48.53-.47.28.02.49.25.47.53-.07,1.36-.44,2.72-1.05,3.94-.09.17-.26.27-.45.27ZM76.59,143.29c-.18,0-.36-.1-.45-.28-.61-1.22-.97-2.58-1.04-3.94-.01-.28.2-.51.47-.52.3-.03.51.2.52.47.06,1.22.39,2.45.94,3.55.12.25.02.55-.22.67-.07.04-.15.05-.22.05ZM92.7,135.74c-.21,0-.4-.13-.47-.34l-1.27-3.69c-.09-.26.05-.55.31-.64.26-.09.54.05.63.31l1.27,3.69c.09.26-.05.55-.31.64-.05.02-.11.03-.16.03ZM76.21,135.72c-.05,0-.11,0-.16-.03-.26-.09-.4-.37-.31-.64l1.27-3.69c.09-.26.37-.4.63-.31.26.09.4.37.31.64l-1.27,3.69c-.07.21-.26.34-.47.34ZM90.17,128.36c-.21,0-.4-.13-.47-.34l-1.27-3.69c-.09-.26.05-.55.31-.64.26-.09.54.05.63.31l1.27,3.69c.09.26-.05.55-.31.64-.05.02-.11.03-.16.03ZM78.74,128.34c-.05,0-.11,0-.16-.03-.26-.09-.4-.37-.31-.64l1.27-3.69c.09-.26.37-.4.63-.31.26.09.4.37.31.64l-1.27,3.69c-.07.21-.26.34-.47.34ZM87.63,120.98c-.21,0-.4-.13-.47-.34l-1.26-3.69c-.09-.26.05-.55.31-.64.26-.09.55.05.63.31l1.26,3.69c.09.26-.05.55-.31.64-.05.02-.11.03-.16.03ZM81.27,120.95c-.05,0-.11,0-.16-.03-.26-.09-.4-.37-.31-.64l1.27-3.69c.09-.26.37-.4.63-.31.26.09.4.37.31.64l-1.27,3.69c-.07.21-.26.34-.47.34Z"/>
  </g>
</svg>