<?xml version="1.0" encoding="UTF-8"?>
<svg id="Layer_1" data-name="Layer 1" xmlns="http://www.w3.org/2000/svg" viewBox="0 0 150 150">
  <defs>
    <style>
      .cls-1, .cls-2 {
        stroke-width: 0px;
      }

      .cls-2 {
        fill: #010101;
      }
    </style>
  </defs>
  <circle class="cls-2" cx="75" cy="75" r="21"/>
  <g>
    <path class="cls-1" d="M75.67,15.88c-.21,0-.4-.13-.47-.33l-.2-.56-.2.56c-.09.26-.38.4-.64.3-.26-.09-.4-.38-.3-.64l1.14-3.21,1.14,3.21c.09.26-.04.55-.3.64-.06.02-.11.03-.17.03Z"/>
    <path class="cls-1" d="M84.62,41.01c-.21,0-.4-.13-.47-.33l-1.49-4.19c-.09-.26.04-.55.3-.64.26-.09.55.04.64.3l1.49,4.19c.09.26-.04.55-.3.64-.06.02-.11.03-.17.03ZM81.64,32.63c-.21,0-.4-.13-.47-.33l-1.49-4.19c-.09-.26.04-.55.3-.64.26-.09.55.04.64.3l1.49,4.19c.09.26-.04.55-.3.64-.06.02-.11.03-.17.03ZM78.65,24.25c-.21,0-.4-.13-.47-.33l-1.49-4.19c-.09-.26.04-.55.3-.64.26-.09.55.04.64.3l1.49,4.19c.09.26-.04.55-.3.64-.06.02-.11.03-.17.03Z"/>
    <path class="cls-1" d="M86.5,47.28l-.86-2.41c-.09-.26.04-.55.3-.64.26-.09.55.04.64.3l.49,1.36,1.31-.62c.25-.12.55-.01.67.24.12.25.01.55-.24.67l-2.31,1.1Z"/>
    <path class="cls-1" d="M92.61,44.32c-.19,0-.37-.11-.45-.29-.12-.25-.01-.55.24-.67l4.02-1.91c.25-.12.55-.01.67.24.12.25.01.55-.24.67l-4.02,1.91c-.07.03-.14.05-.21.05ZM100.65,40.5c-.19,0-.37-.11-.45-.29-.12-.25-.01-.55.24-.67l4.02-1.91c.25-.12.55-.01.67.24.12.25.01.55-.24.67l-4.02,1.91c-.07.03-.14.05-.21.05ZM108.69,36.68c-.19,0-.37-.11-.45-.29-.12-.25-.01-.55.24-.67l4.02-1.91c.25-.12.55-.01.67.24.12.25.01.55-.24.67l-4.02,1.91c-.07.03-.14.05-.21.05Z"/>
    <path class="cls-1" d="M117.67,33.81c-.07,0-.15-.02-.21-.05-.25-.12-.36-.42-.24-.67l.25-.54-.54.25c-.25.12-.55.01-.67-.24-.12-.25-.01-.55.24-.67l3.08-1.46-1.46,3.08c-.08.18-.26.29-.45.29Z"/>
    <path class="cls-1" d="M106.21,57.91c-.07,0-.15-.02-.21-.05-.25-.12-.36-.42-.24-.67l1.91-4.02c.12-.25.42-.35.67-.24.25.12.36.42.24.67l-1.91,4.02c-.08.18-.26.29-.45.29ZM110.03,49.88c-.07,0-.15-.02-.21-.05-.25-.12-.36-.42-.24-.67l1.91-4.02c.12-.25.42-.35.67-.24.25.12.36.42.24.67l-1.91,4.02c-.08.18-.26.29-.45.29ZM113.85,41.84c-.07,0-.15-.02-.21-.05-.25-.12-.36-.42-.24-.67l1.91-4.02c.12-.25.42-.35.67-.24.25.12.36.42.24.67l-1.91,4.02c-.08.18-.26.29-.45.29Z"/>
    <path class="cls-1" d="M105.32,64.4c-.06,0-.11,0-.17-.03l-2.41-.86,1.1-2.31c.12-.25.42-.35.67-.24.25.12.36.42.24.67l-.62,1.31,1.36.48c.26.09.4.38.3.64-.07.2-.26.33-.47.33Z"/>
    <path class="cls-1" d="M130.48,73.34c-.06,0-.11,0-.17-.03l-4.19-1.49c-.26-.09-.4-.38-.3-.64.09-.26.38-.4.64-.3l4.19,1.49c.26.09.4.38.3.64-.07.2-.26.33-.47.33ZM122.1,70.36c-.06,0-.11,0-.17-.03l-4.19-1.49c-.26-.09-.4-.38-.3-.64.09-.26.38-.4.64-.3l4.19,1.49c.26.09.4.38.3.64-.07.2-.26.33-.47.33ZM113.71,67.38c-.06,0-.11,0-.17-.03l-4.19-1.49c-.26-.09-.4-.38-.3-.64.09-.26.38-.4.64-.3l4.19,1.49c.26.09.4.38.3.64-.07.2-.26.33-.47.33Z"/>
    <path class="cls-1" d="M134.68,76.17c-.21,0-.4-.13-.47-.33-.09-.26.04-.55.3-.64l.56-.2-.56-.2c-.26-.09-.4-.38-.3-.64.09-.26.38-.4.64-.3l3.21,1.14-3.21,1.14c-.05.02-.11.03-.17.03Z"/>
    <path class="cls-1" d="M109.52,85.11c-.21,0-.4-.13-.47-.33-.09-.26.04-.55.3-.64l4.19-1.49c.25-.09.54.04.64.3s-.04.55-.3.64l-4.19,1.49c-.05.02-.11.03-.17.03ZM117.9,82.13c-.21,0-.4-.13-.47-.33-.09-.26.04-.55.3-.64l4.19-1.49c.26-.09.55.04.64.3.09.26-.04.55-.3.64l-4.19,1.49c-.05.02-.11.03-.17.03ZM126.29,79.15c-.21,0-.4-.13-.47-.33-.09-.26.04-.55.3-.64l4.19-1.49c.26-.09.54.04.64.3s-.04.55-.3.64l-4.19,1.49c-.05.02-.11.03-.17.03Z"/>
    <path class="cls-1" d="M104.3,89.07c-.19,0-.37-.1-.45-.29l-1.1-2.31,2.41-.85c.26-.09.55.04.64.3.09.26-.04.55-.3.64l-1.36.48.62,1.31c.12.25.01.55-.24.67-.07.03-.14.05-.21.05Z"/>
    <path class="cls-1" d="M115.76,113.17c-.19,0-.37-.1-.45-.29l-1.91-4.02c-.12-.25-.01-.55.24-.67.25-.12.55-.01.67.24l1.91,4.02c.12.25.01.55-.24.67-.07.03-.14.05-.21.05ZM111.94,105.14c-.19,0-.37-.1-.45-.29l-1.91-4.02c-.12-.25-.01-.55.24-.67.25-.12.55-.01.67.24l1.91,4.02c.12.25.01.55-.24.67-.07.03-.14.05-.21.05ZM108.12,97.11c-.19,0-.37-.1-.45-.29l-1.91-4.02c-.12-.25-.01-.55.24-.67.25-.12.55-.01.67.24l1.91,4.02c.12.25.01.55-.24.67-.07.03-.14.05-.21.05Z"/>
    <path class="cls-1" d="M119.59,119.55l-3.08-1.46c-.25-.12-.36-.42-.24-.67.12-.25.42-.35.67-.24l.54.25-.25-.54c-.12-.25-.01-.55.24-.67.25-.12.55-.01.67.24l1.46,3.08Z"/>
    <path class="cls-1" d="M112.71,116.23c-.07,0-.15-.02-.21-.05l-4.02-1.91c-.25-.12-.36-.42-.24-.67.12-.25.42-.35.67-.24l4.02,1.91c.25.12.36.42.24.67-.08.18-.26.29-.45.29ZM104.67,112.41c-.07,0-.15-.02-.21-.05l-4.02-1.91c-.25-.12-.36-.42-.24-.67.12-.25.42-.35.67-.24l4.02,1.91c.25.12.36.42.24.67-.09.18-.27.29-.45.29ZM96.63,108.59c-.07,0-.15-.02-.21-.05l-4.02-1.91c-.25-.12-.36-.42-.24-.67.12-.25.42-.35.67-.24l4.02,1.91c.25.12.36.42.24.67-.08.18-.26.29-.45.29Z"/>
    <path class="cls-1" d="M86.11,105.8c-.06,0-.11,0-.17-.03-.26-.09-.4-.38-.3-.64l.86-2.4,2.31,1.1c.25.12.36.42.24.67-.12.25-.42.35-.67.24l-1.31-.62-.49,1.36c-.07.2-.27.33-.47.33Z"/>
    <path class="cls-1" d="M77.16,130.93c-.06,0-.11,0-.17-.03-.26-.09-.4-.38-.3-.64l1.49-4.19c.09-.26.38-.4.64-.3.26.09.4.38.3.64l-1.49,4.19c-.07.21-.26.33-.47.33ZM80.15,122.56c-.06,0-.11,0-.17-.03-.26-.09-.4-.38-.3-.64l1.49-4.19c.09-.26.38-.4.64-.3.26.09.4.38.3.64l-1.49,4.19c-.07.21-.27.33-.47.33ZM83.13,114.18c-.06,0-.11,0-.17-.03-.26-.09-.4-.38-.3-.64l1.49-4.19c.09-.26.38-.4.64-.3.26.09.4.38.3.64l-1.49,4.19c-.07.21-.27.33-.47.33Z"/>
    <path class="cls-1" d="M75,138l-1.14-3.21c-.09-.26.04-.55.3-.64.26-.09.55.04.64.3l.2.56.2-.56c.09-.26.38-.4.64-.3.26.09.4.38.3.64l-1.14,3.21Z"/>
    <path class="cls-1" d="M72.84,130.93c-.21,0-.4-.13-.47-.33l-1.49-4.19c-.09-.26.04-.55.3-.64.26-.09.55.04.64.3l1.49,4.19c.09.26-.04.55-.3.64-.06.02-.11.03-.17.03ZM69.86,122.56c-.21,0-.4-.13-.47-.33l-1.49-4.19c-.09-.26.04-.55.3-.64.26-.09.55.04.64.3l1.49,4.19c.09.26-.04.55-.3.64-.06.02-.11.03-.17.03ZM66.87,114.18c-.21,0-.4-.13-.47-.33l-1.49-4.19c-.09-.26.04-.55.3-.64s.55.04.64.3l1.49,4.19c.09.26-.04.55-.3.64-.06.02-.11.03-.17.03Z"/>
    <path class="cls-1" d="M63.89,105.8c-.21,0-.4-.13-.47-.33l-.48-1.36-1.31.62c-.25.12-.55.01-.67-.24-.12-.25-.01-.55.24-.67l2.31-1.1.86,2.41c.09.26-.04.55-.3.64-.06.02-.11.03-.17.03Z"/>
    <path class="cls-1" d="M37.3,116.23c-.19,0-.37-.11-.45-.29-.12-.25-.01-.55.24-.67l4.02-1.91c.25-.12.55-.01.67.24.12.25.01.55-.24.67l-4.02,1.91c-.07.03-.14.05-.21.05ZM45.34,112.41c-.19,0-.37-.11-.45-.29-.12-.25-.01-.55.24-.67l4.02-1.91c.25-.12.55-.01.67.24.12.25.01.55-.24.67l-4.02,1.91c-.07.03-.14.05-.21.05ZM53.38,108.59c-.19,0-.37-.11-.45-.29-.12-.25-.01-.55.24-.67l4.02-1.91c.25-.12.55-.01.67.24.12.25.01.55-.24.67l-4.02,1.91c-.07.03-.14.05-.21.05Z"/>
    <path class="cls-1" d="M30.41,119.55l1.46-3.08c.12-.25.42-.35.67-.24.25.12.36.42.24.67l-.25.54.54-.25c.25-.12.55-.01.67.24.12.25.01.55-.24.67l-3.08,1.46Z"/>
    <path class="cls-1" d="M34.24,113.17c-.07,0-.15-.02-.21-.05-.25-.12-.36-.42-.24-.67l1.91-4.02c.12-.25.42-.35.67-.24.25.12.36.42.24.67l-1.91,4.02c-.08.18-.26.29-.45.29ZM38.06,105.14c-.07,0-.15-.02-.21-.05-.25-.12-.36-.42-.24-.67l1.91-4.02c.12-.25.42-.35.67-.24.25.12.36.42.24.67l-1.91,4.02c-.08.18-.26.29-.45.29ZM41.88,97.11c-.07,0-.15-.02-.21-.05-.25-.12-.36-.42-.24-.67l1.91-4.02c.12-.25.42-.35.67-.24.25.12.36.42.24.67l-1.91,4.02c-.08.18-.26.29-.45.29Z"/>
    <path class="cls-1" d="M45.7,89.07c-.07,0-.15-.02-.21-.05-.25-.12-.36-.42-.24-.67l.62-1.31-1.36-.48c-.26-.09-.4-.38-.3-.64.09-.26.38-.4.64-.3l2.41.85-1.1,2.31c-.08.18-.26.29-.45.29Z"/>
    <path class="cls-1" d="M40.48,85.11c-.06,0-.11,0-.17-.03l-4.19-1.49c-.26-.09-.4-.38-.3-.64.09-.26.38-.4.64-.3l4.19,1.49c.26.09.4.38.3.64-.07.2-.26.33-.47.33ZM32.1,82.13c-.06,0-.11,0-.17-.03l-4.19-1.49c-.26-.09-.4-.38-.3-.64.09-.26.38-.4.64-.3l4.19,1.49c.26.09.4.38.3.64-.07.2-.26.33-.47.33ZM23.71,79.15c-.06,0-.11,0-.17-.03l-4.19-1.49c-.26-.09-.4-.38-.3-.64.09-.26.38-.4.64-.3l4.19,1.49c.26.09.4.38.3.64-.07.2-.26.33-.47.33Z"/>
    <path class="cls-1" d="M15.32,76.17c-.06,0-.11,0-.17-.03l-3.21-1.14,3.21-1.14c.25-.09.54.04.64.3.09.26-.04.55-.3.64l-.56.2.56.2c.26.09.4.38.3.64-.07.2-.26.33-.47.33Z"/>
    <path class="cls-1" d="M19.52,73.34c-.21,0-.4-.13-.47-.33-.09-.26.04-.55.3-.64l4.19-1.49c.25-.09.55.04.64.3.09.26-.04.55-.3.64l-4.19,1.49c-.05.02-.11.03-.17.03ZM27.9,70.36c-.21,0-.4-.13-.47-.33-.09-.26.04-.55.3-.64l4.19-1.49c.26-.09.55.04.64.3.09.26-.04.55-.3.64l-4.19,1.49c-.05.02-.11.03-.17.03ZM36.29,67.38c-.21,0-.4-.13-.47-.33-.09-.26.04-.55.3-.64l4.19-1.49c.26-.09.54.04.64.3.09.26-.04.55-.3.64l-4.19,1.49c-.05.02-.11.03-.17.03Z"/>
    <path class="cls-1" d="M44.68,64.4c-.21,0-.4-.13-.47-.33-.09-.26.04-.55.3-.64l1.36-.48-.62-1.31c-.12-.25-.01-.55.24-.67.25-.12.55-.01.67.24l1.1,2.31-2.41.86c-.06.02-.11.03-.17.03Z"/>
    <path class="cls-1" d="M43.79,57.91c-.19,0-.37-.1-.45-.29l-1.91-4.02c-.12-.25-.01-.55.24-.67.25-.12.55-.01.67.24l1.91,4.02c.12.25.01.55-.24.67-.07.03-.14.05-.21.05ZM39.97,49.88c-.19,0-.37-.1-.45-.29l-1.91-4.02c-.12-.25-.01-.55.24-.67.25-.12.55-.01.67.24l1.91,4.02c.12.25.01.55-.24.67-.07.03-.14.05-.21.05ZM36.15,41.84c-.19,0-.37-.1-.45-.29l-1.91-4.02c-.12-.25-.01-.55.24-.67.25-.12.55-.01.67.24l1.91,4.02c.12.25.01.55-.24.67-.07.03-.14.05-.21.05Z"/>
    <path class="cls-1" d="M32.33,33.81c-.19,0-.37-.1-.45-.29l-1.46-3.08,3.08,1.46c.25.12.36.42.24.67-.12.25-.42.35-.67.24l-.54-.25.25.54c.12.25.01.55-.24.67-.07.03-.14.05-.21.05Z"/>
    <path class="cls-1" d="M57.4,44.32c-.07,0-.15-.02-.21-.05l-4.02-1.91c-.25-.12-.36-.42-.24-.67.12-.25.42-.35.67-.24l4.02,1.91c.25.12.36.42.24.67-.09.18-.27.29-.45.29ZM49.36,40.5c-.07,0-.15-.02-.21-.05l-4.02-1.91c-.25-.12-.36-.42-.24-.67.12-.25.42-.35.67-.24l4.02,1.91c.25.12.36.42.24.67-.09.18-.27.29-.45.29ZM41.32,36.68c-.07,0-.15-.02-.21-.05l-4.02-1.91c-.25-.12-.36-.42-.24-.67.12-.25.42-.35.67-.24l4.02,1.91c.25.12.36.42.24.67-.08.18-.26.29-.45.29Z"/>
    <path class="cls-1" d="M63.51,47.28l-2.31-1.1c-.25-.12-.36-.42-.24-.67.12-.25.42-.35.67-.24l1.31.62.48-1.36c.09-.26.38-.4.64-.3.26.09.4.38.3.64l-.86,2.41Z"/>
    <path class="cls-1" d="M65.38,41.01c-.06,0-.11,0-.17-.03-.26-.09-.4-.38-.3-.64l1.49-4.19c.09-.26.38-.4.64-.3.26.09.4.38.3.64l-1.49,4.19c-.07.21-.27.33-.47.33ZM68.37,32.63c-.06,0-.11,0-.17-.03-.26-.09-.4-.38-.3-.64l1.49-4.19c.09-.26.38-.4.64-.3.26.09.4.38.3.64l-1.49,4.19c-.07.21-.27.33-.47.33ZM71.35,24.25c-.06,0-.11,0-.17-.03-.26-.09-.4-.38-.3-.64l1.49-4.19c.09-.26.38-.39.64-.3.26.09.4.38.3.64l-1.49,4.19c-.07.21-.26.33-.47.33Z"/>
  </g>
</svg>