<?xml version="1.0" encoding="UTF-8"?>
<svg id="Layer_1" data-name="Layer 1" xmlns="http://www.w3.org/2000/svg" viewBox="0 0 150 150">
  <defs>
    <style>
      .cls-1 {
        fill: #101010;
        stroke-width: 0px;
      }
    </style>
  </defs>
  <g id="wRX60q.tif">
    <path class="cls-1" d="M75.2,40.34c1.9-1.97,3.86-4,5.82-6.04,11.18-11.58,29.5-12.47,41.04-2,11.9,10.81,13.31,29.83,2.54,41.78-8.47,9.4-17.61,18.2-26.47,27.26-6.71,6.86-16.41,15.68-23.12,22.53-2.49,2.54,0,0,0,0,0,0-33.14-32.54-48.11-47.98-13.89-14.33-10.85-37.67,5.99-47.16,11.32-6.37,25.93-4.41,35.14,4.69,2.28,2.25,4.62,4.45,7.17,6.92Z"/>
  </g>
</svg>