<?xml version="1.0" encoding="UTF-8"?>
<svg id="Layer_1" data-name="Layer 1" xmlns="http://www.w3.org/2000/svg" viewBox="0 0 150 150">
  <defs>
    <style>
      .cls-1, .cls-2 {
        stroke-width: 0px;
      }

      .cls-2 {
        fill: #010101;
      }
    </style>
  </defs>
  <path class="cls-2" d="M134.98,57h-69.95c-5.54,0-10.02,4.49-10.02,10.02v24.95c0,5.54,4.49,10.02,10.02,10.02h46.66l19.32,15.62.19-15.62h3.79c5.54,0,10.02-4.49,10.02-10.02v-24.95c0-5.54-4.49-10.02-10.02-10.02Z"/>
  <g>
    <path class="cls-1" d="M19.01,90.16l-.04-3.03c0-.28.22-.5.49-.51.26-.01.5.22.51.49v.97s.76-.61.76-.61c.21-.17.53-.14.7.07s.14.53-.07.7l-2.36,1.91Z"/>
    <path class="cls-1" d="M19.43,83.75c-.27,0-.5-.22-.5-.49l-.05-3.88c0-.28.22-.5.49-.51h0c.27,0,.5.22.5.49l.05,3.88c0,.28-.22.5-.49.51h0Z"/>
    <path class="cls-1" d="M19.34,76c-.27,0-.5-.22-.5-.49l-.02-1.51h-1.51c-.28,0-.5-.22-.5-.5s.22-.5.5-.5h2.49l.03,2.49c0,.28-.22.5-.49.51h0Z"/>
    <path class="cls-1" d="M24.15,85.86c-.15,0-.29-.06-.39-.19-.17-.21-.14-.53.07-.7l3.07-2.48c.21-.17.53-.14.7.07.17.21.14.53-.07.7l-3.07,2.48c-.09.07-.2.11-.31.11ZM30.28,80.9c-.15,0-.29-.06-.39-.19-.17-.21-.14-.53.07-.7l3.07-2.48c.21-.17.53-.14.7.07.17.21.14.53-.07.7l-3.07,2.48c-.09.07-.2.11-.31.11ZM36.42,75.94c-.15,0-.29-.06-.39-.19-.17-.21-.14-.53.07-.7l2.54-2.06h1.03c.28,0,.5.22.5.5s-.22.5-.5.5h-.68l-2.27,1.83c-.09.07-.2.11-.31.11ZM94.51,74h-3.57c-.28,0-.5-.22-.5-.5s.22-.5.5-.5h3.54c.13,0,.26,0,.39,0,.27-.02.51.2.52.48s-.2.51-.48.52c-.13,0-.26,0-.4,0ZM87,74h-3.94c-.28,0-.5-.22-.5-.5s.22-.5.5-.5h3.94c.28,0,.5.22.5.5s-.22.5-.5.5ZM79.11,74h-3.94c-.28,0-.5-.22-.5-.5s.22-.5.5-.5h3.94c.28,0,.5.22.5.5s-.22.5-.5.5ZM71.22,74h-3.94c-.28,0-.5-.22-.5-.5s.22-.5.5-.5h3.94c.28,0,.5.22.5.5s-.22.5-.5.5ZM63.33,74h-3.94c-.28,0-.5-.22-.5-.5s.22-.5.5-.5h3.94c.28,0,.5.22.5.5s-.22.5-.5.5ZM55.45,74h-3.94c-.28,0-.5-.22-.5-.5s.22-.5.5-.5h3.94c.28,0,.5.22.5.5s-.22.5-.5.5ZM47.56,74h-3.94c-.28,0-.5-.22-.5-.5s.22-.5.5-.5h3.94c.28,0,.5.22.5.5s-.22.5-.5.5ZM13.38,73.77s-.07,0-.11-.01c-1.36-.3-2.63-.85-3.77-1.65-.23-.16-.28-.47-.12-.7.16-.23.47-.28.7-.12,1.03.72,2.18,1.22,3.41,1.49.27.06.44.33.38.6-.05.23-.26.39-.49.39ZM98.69,73.07c-.19,0-.37-.11-.45-.29-.12-.25,0-.55.24-.66,1.14-.53,2.15-1.27,3-2.2.19-.2.5-.22.71-.03.2.19.22.5.03.71-.94,1.03-2.06,1.84-3.32,2.43-.07.03-.14.05-.21.05ZM7.08,69.38c-.16,0-.33-.08-.42-.23-.75-1.17-1.25-2.46-1.5-3.83-.05-.27.13-.53.41-.58.26-.05.53.13.58.41.22,1.24.67,2.4,1.35,3.47.15.23.08.54-.15.69-.08.05-.18.08-.27.08ZM103.89,67.42c-.06,0-.12,0-.17-.03-.26-.1-.39-.38-.3-.64.38-1.04.58-2.15.58-3.27v-.43c0-.28.22-.5.5-.5s.5.22.5.5v.43c0,1.24-.21,2.46-.64,3.61-.07.2-.27.33-.47.33ZM5.5,61.79c-.28,0-.5-.22-.5-.5v-3.94c0-.28.22-.5.5-.5s.5.22.5.5v3.94c0,.28-.22.5-.5.5ZM104.5,59.6c-.28,0-.5-.22-.5-.5v-3.94c0-.28.22-.5.5-.5s.5.22.5.5v3.94c0,.28-.22.5-.5.5ZM5.5,53.91c-.28,0-.5-.22-.5-.5v-3.94c0-.28.22-.5.5-.5s.5.22.5.5v3.94c0,.28-.22.5-.5.5ZM104.5,51.71c-.28,0-.5-.22-.5-.5v-3.94c0-.28.22-.5.5-.5s.5.22.5.5v3.94c0,.28-.22.5-.5.5ZM5.5,46.02c-.28,0-.5-.22-.5-.5v-3.94c0-.28.22-.5.5-.5s.5.22.5.5v3.94c0,.28-.22.5-.5.5ZM104.5,43.83c-.28,0-.5-.22-.5-.5v-3.94c0-.28.22-.5.5-.5s.5.22.5.5v3.94c0,.28-.22.5-.5.5ZM5.54,38.13s-.03,0-.04,0c-.27-.02-.48-.27-.45-.54.12-1.39.51-2.72,1.16-3.95.13-.25.43-.34.67-.21.25.13.34.43.21.67-.58,1.11-.94,2.31-1.05,3.57-.02.26-.24.46-.5.46ZM104.03,35.99c-.21,0-.41-.14-.48-.35-.38-1.2-.99-2.29-1.8-3.26-.18-.21-.15-.53.06-.7.21-.18.53-.15.7.06.9,1.07,1.57,2.28,1.99,3.6.08.26-.06.54-.33.63-.05.02-.1.02-.15.02ZM9.1,31.33c-.14,0-.29-.06-.38-.18-.18-.21-.15-.53.06-.7,1.07-.89,2.29-1.56,3.61-1.97.27-.08.54.07.63.33.08.26-.07.54-.33.63-1.2.37-2.3.97-3.27,1.78-.09.08-.21.12-.32.12ZM99.08,30.12c-.08,0-.16-.02-.23-.06-1.12-.58-2.32-.92-3.58-1.03-.28-.02-.48-.26-.46-.54.02-.28.28-.48.54-.46,1.39.11,2.72.5,3.95,1.14.25.13.34.43.21.67-.09.17-.26.27-.44.27ZM91.37,29h-3.94c-.28,0-.5-.22-.5-.5s.22-.5.5-.5h3.94c.28,0,.5.22.5.5s-.22.5-.5.5ZM83.48,29h-3.94c-.28,0-.5-.22-.5-.5s.22-.5.5-.5h3.94c.28,0,.5.22.5.5s-.22.5-.5.5ZM75.59,29h-3.94c-.28,0-.5-.22-.5-.5s.22-.5.5-.5h3.94c.28,0,.5.22.5.5s-.22.5-.5.5ZM67.71,29h-3.94c-.28,0-.5-.22-.5-.5s.22-.5.5-.5h3.94c.28,0,.5.22.5.5s-.22.5-.5.5ZM59.82,29h-3.94c-.28,0-.5-.22-.5-.5s.22-.5.5-.5h3.94c.28,0,.5.22.5.5s-.22.5-.5.5ZM51.93,29h-3.94c-.28,0-.5-.22-.5-.5s.22-.5.5-.5h3.94c.28,0,.5.22.5.5s-.22.5-.5.5ZM44.04,29h-3.94c-.28,0-.5-.22-.5-.5s.22-.5.5-.5h3.94c.28,0,.5.22.5.5s-.22.5-.5.5ZM36.16,29h-3.94c-.28,0-.5-.22-.5-.5s.22-.5.5-.5h3.94c.28,0,.5.22.5.5s-.22.5-.5.5ZM28.27,29h-3.94c-.28,0-.5-.22-.5-.5s.22-.5.5-.5h3.94c.28,0,.5.22.5.5s-.22.5-.5.5ZM20.38,29h-3.94c-.28,0-.5-.22-.5-.5s.22-.5.5-.5h3.94c.28,0,.5.22.5.5s-.22.5-.5.5Z"/>
  </g>
</svg>