<?xml version="1.0" encoding="UTF-8"?>
<svg id="Layer_1" data-name="Layer 1" xmlns="http://www.w3.org/2000/svg" viewBox="0 0 150 150">
  <defs>
    <style>
      .cls-1, .cls-2 {
        stroke-width: 0px;
      }

      .cls-2 {
        fill: #010101;
      }
    </style>
  </defs>
  <g>
    <path class="cls-1" d="M29.49,32.83c-.28,0-.5-.22-.5-.5,0-.73.33-1.43.99-2.11.2-.2.51-.2.71,0,.2.19.2.51,0,.71-.47.48-.7.95-.7,1.41,0,.28-.22.5-.5.5Z"/>
    <path class="cls-1" d="M33.8,28.96c-.19,0-.38-.11-.46-.31-.11-.25.01-.55.27-.66,1.11-.47,2.43-.92,3.92-1.34.27-.08.54.08.62.34.08.27-.08.54-.34.62-1.45.41-2.73.85-3.8,1.3-.06.03-.13.04-.2.04ZM110.32,28.96c-.07,0-.13-.01-.2-.04-1.07-.45-2.35-.89-3.8-1.3-.27-.08-.42-.35-.34-.62s.35-.42.62-.34c1.49.42,2.8.87,3.92,1.34.25.11.37.4.27.66-.08.19-.27.31-.46.31ZM41.62,26.66c-.23,0-.44-.16-.49-.4-.06-.27.12-.54.39-.59,1.26-.27,2.62-.52,4.03-.75.27-.05.53.14.57.41.04.27-.14.53-.41.57-1.4.23-2.74.48-3.99.75-.04,0-.07.01-.1.01ZM102.5,26.66s-.07,0-.1-.01c-1.25-.26-2.59-.51-3.99-.75-.27-.04-.46-.3-.41-.57.04-.27.31-.46.57-.41,1.42.23,2.78.49,4.04.75.27.06.44.32.39.59-.05.24-.26.4-.49.4ZM49.67,25.33c-.25,0-.46-.18-.5-.44-.04-.27.16-.52.43-.56,1.31-.17,2.67-.32,4.07-.46.3-.02.52.17.55.45s-.17.52-.45.55c-1.39.14-2.74.29-4.04.46-.02,0-.04,0-.06,0ZM94.45,25.33s-.04,0-.06,0c-1.3-.17-2.65-.32-4.04-.46-.28-.03-.48-.27-.45-.55.03-.27.27-.47.55-.45,1.4.14,2.76.29,4.07.46.27.04.47.29.43.56-.03.25-.25.44-.5.44ZM57.79,24.52c-.26,0-.48-.2-.5-.46-.02-.28.19-.52.46-.54,1.33-.1,2.69-.18,4.08-.25.3-.03.51.2.52.47.01.28-.2.51-.47.52-1.38.07-2.74.15-4.06.25-.01,0-.03,0-.04,0ZM86.33,24.52s-.03,0-.04,0c-1.32-.1-2.68-.18-4.06-.25-.28-.01-.49-.25-.47-.52.01-.27.21-.5.52-.47,1.39.07,2.75.16,4.08.25.28.02.48.26.46.54-.02.26-.24.46-.5.46ZM65.94,24.1c-.27,0-.49-.21-.5-.48,0-.28.21-.51.49-.52,1.34-.04,2.71-.07,4.09-.08.24,0,.5.22.5.5,0,.28-.22.5-.5.5-1.37.01-2.73.04-4.07.08h-.01ZM78.18,24.1h-.01c-1.34-.04-2.7-.07-4.07-.08-.28,0-.5-.23-.5-.5,0-.28.25-.5.5-.5,1.38.01,2.75.04,4.09.08.28,0,.49.24.49.52,0,.27-.23.48-.5.48Z"/>
    <path class="cls-1" d="M114.63,32.83c-.28,0-.5-.22-.5-.5,0-.46-.24-.93-.7-1.41-.19-.2-.19-.51,0-.71.2-.19.52-.19.71,0,.65.67.99,1.38.99,2.1,0,.28-.22.5-.5.5Z"/>
  </g>
  <path class="cls-2" d="M145.01,78.08c0-17.67-13.39-32.03-30.04-32.39v-14.31c0,4.87-19.21,8.82-42.9,8.82s-42.9-3.95-42.9-8.82v85.95c0,4.87,19.21,11.66,42.9,11.66s42.9-6.79,42.9-11.66v-6.87c16.65-.36,30.04-14.71,30.04-32.39ZM114.97,97.76v-39.36c8.51,2.05,14.86,10.07,14.86,19.68s-6.36,17.63-14.86,19.68Z"/>
</svg>