<?xml version="1.0" encoding="UTF-8"?>
<svg id="Layer_2" data-name="Layer 2" xmlns="http://www.w3.org/2000/svg" viewBox="0 0 70.08 70">
  <defs>
    <style>
      .cls-1, .cls-2 {
        stroke-width: 0px;
      }

      .cls-2 {
        fill: #010101;
      }
    </style>
  </defs>
  <g id="Layer_1-2" data-name="Layer 1">
    <path class="cls-1" d="M32.72,70s-.03,0-.04,0c-1.59-.11-3.18-.32-4.74-.64-.32-.07-.53-.38-.46-.7.07-.32.39-.53.7-.46,1.5.31,3.04.52,4.58.62.33.02.58.31.56.63-.02.32-.28.56-.59.56ZM37.42,70c-.31,0-.57-.24-.59-.56-.02-.33.23-.61.55-.64,1.54-.1,3.08-.32,4.57-.63.31-.07.64.14.7.46.07.32-.14.64-.46.71-1.55.32-3.14.54-4.73.65-.01,0-.03,0-.04,0ZM23.54,68.11c-.07,0-.13-.01-.2-.03-1.5-.53-2.97-1.17-4.39-1.9-.29-.15-.41-.51-.26-.8.15-.29.51-.41.8-.26,1.37.71,2.79,1.33,4.24,1.84.31.11.47.45.36.76-.09.24-.32.4-.56.4ZM46.6,68.09c-.24,0-.48-.15-.56-.4-.11-.31.05-.65.36-.76,1.44-.51,2.87-1.13,4.23-1.84.29-.15.65-.04.8.25.15.29.04.65-.25.8-1.41.73-2.89,1.38-4.38,1.91-.07.02-.13.03-.2.03ZM15.21,63.8c-.12,0-.24-.04-.34-.11-1.3-.92-2.55-1.93-3.71-3.01-.24-.22-.25-.6-.03-.84.22-.24.6-.25.84-.03,1.12,1.05,2.33,2.03,3.58,2.91.27.19.33.56.14.83-.12.16-.3.25-.49.25ZM54.91,63.77c-.19,0-.37-.09-.49-.25-.19-.27-.13-.64.14-.83,1.25-.89,2.46-1.87,3.58-2.92.24-.23.62-.21.84.03.22.24.21.62-.03.84-1.16,1.09-2.41,2.1-3.7,3.02-.1.07-.22.11-.34.11ZM8.35,57.41c-.17,0-.34-.07-.46-.22-1.01-1.23-1.94-2.54-2.76-3.9-.17-.28-.08-.65.2-.82.28-.17.65-.08.82.2.8,1.31,1.7,2.57,2.67,3.76.21.26.17.63-.09.84-.11.09-.24.13-.38.13ZM61.76,57.36c-.13,0-.27-.04-.38-.13-.26-.21-.29-.58-.09-.84.97-1.19,1.87-2.46,2.67-3.77.17-.28.54-.37.82-.2.28.17.37.54.2.82-.83,1.36-1.76,2.67-2.76,3.9-.12.14-.29.22-.46.22ZM3.46,49.41c-.23,0-.45-.13-.55-.36-.64-1.46-1.18-2.98-1.61-4.5-.09-.32.1-.65.41-.74.32-.09.65.1.74.41.41,1.47.94,2.94,1.55,4.35.13.3,0,.65-.31.79-.08.03-.16.05-.24.05ZM66.64,49.35c-.08,0-.16-.02-.24-.05-.3-.13-.44-.48-.31-.78.61-1.41,1.13-2.87,1.55-4.35.09-.32.42-.5.74-.41.32.09.5.42.41.74-.43,1.53-.97,3.05-1.6,4.51-.1.22-.32.36-.55.36ZM.92,40.39c-.29,0-.55-.22-.59-.51-.22-1.57-.33-3.17-.33-4.77,0-.33.27-.6.6-.6h0c.33,0,.6.27.6.6,0,1.54.11,3.09.32,4.61.05.33-.18.63-.51.67-.03,0-.05,0-.08,0ZM69.16,40.32s-.05,0-.08,0c-.33-.04-.55-.35-.51-.67.21-1.51.31-3.06.31-4.61,0-.33.27-.66.6-.66s.6.2.6.53v.15c0,1.58-.11,3.19-.32,4.75-.04.3-.3.52-.59.52ZM.9,31.01s-.05,0-.08,0c-.33-.04-.56-.34-.51-.67.21-1.57.53-3.15.96-4.68.09-.32.42-.5.73-.42.32.09.5.42.42.73-.41,1.48-.72,3-.93,4.52-.04.3-.3.52-.59.52ZM69.14,30.82c-.29,0-.55-.22-.59-.51-.21-1.53-.53-3.05-.95-4.52-.09-.32.09-.65.41-.74.32-.09.65.09.74.41.43,1.52.76,3.1.99,4.68.05.33-.18.63-.51.67-.03,0-.06,0-.08,0ZM3.41,21.98c-.08,0-.16-.02-.24-.05-.3-.13-.44-.48-.31-.78.63-1.46,1.37-2.89,2.19-4.25.17-.28.54-.37.82-.2.28.17.37.54.2.82-.8,1.31-1.51,2.69-2.12,4.1-.1.22-.32.36-.55.36ZM66.59,21.8c-.23,0-.45-.13-.55-.36-.61-1.4-1.33-2.77-2.14-4.09-.17-.28-.09-.65.2-.82.28-.17.65-.09.82.2.84,1.36,1.58,2.78,2.22,4.23.13.3,0,.65-.31.79-.08.03-.16.05-.24.05ZM8.27,13.96c-.13,0-.27-.04-.38-.13-.26-.21-.3-.58-.09-.84,1-1.24,2.1-2.41,3.26-3.5.24-.22.62-.21.84.03.23.24.21.62-.03.84-1.12,1.05-2.18,2.19-3.14,3.38-.12.15-.29.22-.46.22ZM61.68,13.81c-.17,0-.34-.07-.46-.22-.97-1.19-2.04-2.32-3.16-3.36-.24-.22-.26-.6-.03-.84s.6-.25.84-.03c1.17,1.08,2.27,2.25,3.27,3.48.21.26.17.63-.08.84-.11.09-.24.14-.38.14ZM15.11,7.54c-.19,0-.37-.09-.49-.25-.19-.27-.13-.64.14-.83,1.3-.92,2.67-1.76,4.07-2.5.29-.15.65-.04.81.25.15.29.04.65-.25.81-1.36.71-2.68,1.52-3.93,2.41-.1.07-.23.11-.35.11ZM54.81,7.43c-.12,0-.24-.03-.34-.11-1.25-.88-2.58-1.69-3.95-2.39-.29-.15-.41-.51-.26-.8.15-.29.51-.41.8-.26,1.41.73,2.79,1.56,4.09,2.48.27.19.33.56.14.83-.12.17-.3.25-.49.25ZM23.41,3.2c-.24,0-.47-.15-.56-.39-.11-.31.05-.65.36-.76,1.49-.54,3.04-.97,4.6-1.3.32-.07.64.14.71.46.07.32-.14.64-.46.71-1.51.32-3,.74-4.44,1.26-.07.02-.14.03-.2.03ZM46.47,3.14c-.07,0-.13-.01-.2-.03-1.45-.51-2.95-.92-4.45-1.23-.32-.07-.53-.38-.47-.7.07-.32.39-.53.7-.47,1.56.32,3.11.75,4.61,1.27.31.11.47.45.36.76-.09.25-.32.4-.56.4ZM32.59,1.28c-.31,0-.57-.24-.59-.55-.02-.33.22-.61.55-.64.83-.06,1.71-.07,2.49-.09.77,0,1.53.03,2.29.07.33.02.58.3.56.63-.02.33-.33.57-.63.56-.74-.05-1.53-.09-2.23-.07-.79,0-1.59.03-2.38.08-.01,0-.03,0-.04,0Z"/>
    <path class="cls-2" d="M35.04,9.99c-13.84,0-25.05,11.22-25.05,25.05s11.22,25.05,25.05,25.05,25.05-11.22,25.05-25.05-11.22-25.05-25.05-25.05ZM46,27.88l-14.03,16.56-7.8-7.38c-.48-.45-.5-1.21-.05-1.69.45-.48,1.21-.5,1.69-.05l5.97,5.65,12.4-14.64c.42-.5,1.18-.57,1.68-.14.5.43.57,1.18.14,1.68Z"/>
  </g>
</svg>