<?xml version="1.0" encoding="UTF-8"?>
<svg id="Layer_1" data-name="Layer 1" xmlns="http://www.w3.org/2000/svg" viewBox="0 0 1020 295">
  <defs>
    <style>
      .cls-1 {
        fill: #8bc9b6;
      }

      .cls-1, .cls-2, .cls-3, .cls-4 {
        stroke-width: 0px;
      }

      .cls-2 {
        fill: #8f84bc;
      }

      .cls-3 {
        fill: #049548;
      }

      .cls-4 {
        fill: #1d1c1a;
      }
    </style>
  </defs>
  <path class="cls-3" d="M181.46,135.2l6.09.85,6.29.83c4.21.58,8.46,1.2,12.75,1.94,8.56,1.46,17.24,3.32,25.95,6.03,8.67,2.74,17.44,6.27,25.63,11.46,4.07,2.61,8.07,5.48,11.67,8.86l2.71,2.53c.87.88,1.68,1.83,2.51,2.74.82.93,1.67,1.81,2.47,2.8.78,1.01,1.57,2.02,2.32,3.04,5.96,8.32,9.7,17.93,11.36,27.61,1.67,9.71,1.36,19.52-.6,28.94-1.96,9.42-5.62,18.48-10.84,26.73-5.22,8.22-12.1,15.66-20.46,21.39l-3.2,2.07-3.3,1.79-3.31,1.75c-1.11.58-2.29.98-3.43,1.47-2.3.93-4.59,1.94-6.99,2.55-2.38.66-4.74,1.51-7.17,1.87-9.65,2.07-19.51,2.39-29.1,1.22-19.15-2.42-37.41-10.61-51.6-23.91l-2.63-2.52c-.88-.83-1.63-1.81-2.45-2.71-1.58-1.84-3.27-3.65-4.59-5.64l-2.09-2.93c-.69-.98-1.4-1.94-1.98-3-1.19-2.07-2.42-4.12-3.56-6.2-4.34-8.48-7.23-17.52-8.9-26.65-1.63-9.15-2.09-18.41-1.36-27.53.77-9.12,2.6-18.11,5.4-26.79l24.36,7.64c-2.22,6.86-3.66,13.96-4.28,21.09-.57,7.15-.2,14.29,1.05,21.2,1.26,6.91,3.4,13.57,6.53,19.7l2.56,4.46c.39.77.93,1.44,1.42,2.13l1.49,2.08c.93,1.46,2.11,2.64,3.18,3.91.57.63,1.05,1.3,1.67,1.87l1.85,1.73c9.85,9.26,23.27,15.4,37.08,17.12,6.91.83,13.88.58,20.48-.85,1.7-.22,3.23-.87,4.87-1.28,1.65-.38,3.13-1.11,4.67-1.71.75-.34,1.57-.56,2.29-.96l2.17-1.17,2.17-1.15,2.01-1.3c10.56-7.23,18.17-19.45,20.88-32.58,2.78-13.11.62-27.03-6.65-37.1l-1.4-1.84c-.49-.61-1.09-1.2-1.62-1.81-.56-.59-1.08-1.23-1.63-1.81l-1.81-1.67c-2.38-2.26-5.14-4.21-8-6.07-5.78-3.69-12.52-6.46-19.64-8.7-7.15-2.23-14.73-3.88-22.55-5.21-3.9-.67-7.87-1.25-11.89-1.81l-6.06-.8-6.25-.87,3.44-24.84Z"/>
  <path class="cls-3" d="M978.48.64c-23.88,16.54-68.53,43.06-90.74,59.44-11.73,8.63-23.91,17-36.82,24.5-12.89,7.52-26.63,14.12-40.95,19.28l-8.76-23.59c25.36-9.04,48.71-23.65,71.16-40.26,14.05-10.34,38.2-25.38,60.15-39.37h45.96Z"/>
  <path class="cls-1" d="M364.82,54.06c4.33-.18,8.64-.16,12.96-.16,4.31.02,8.64-.06,12.95.03,8.62.22,17.24.34,25.83.83l-1.22,25.08c-8.33-.48-16.65-.59-24.98-.8-4.16-.1-8.33-.02-12.47-.03-4.16,0-8.33-.02-12.47.16l-.59-25.11Z"/>
  <path class="cls-1" d="M31.91,100.46c28.1,9.2,56.64,17.07,85.51,23.4l-5.58,24.5c-29.77-6.54-59.14-14.63-88.02-24.09l8.1-23.81Z"/>
  <path class="cls-1" d="M778.83,86.85c7.63-1.71,15.05-4.05,22.39-6.59l8.75,23.59c-8.26,2.87-16.64,5.48-25.16,7.4l-5.98-24.41Z"/>
  <path class="cls-4" d="M291.75,207.75c1.94,16.65-1.6,33.3-9.63,47.82l-22.47-12c5.55-9.94,8.02-21.84,6.68-32.92l25.42-2.9Z"/>
  <path class="cls-4" d="M129.09,165.86c2.86-8.8,6.69-17.31,11.69-25.22,4.9-7.85,10.6-15.06,16.92-21.7,12.62-13.3,27.69-23.78,43.56-32.1,7.95-4.17,16.18-7.74,24.56-10.79,8.36-3.06,17.01-5.62,25.39-7.63,8.41-2.31,16.93-3.91,25.42-5.67,4.26-.82,8.54-1.44,12.8-2.16l6.4-1.06,6.43-.82,3.4,24.89-6.09.77-6.04.99c-4.03.69-8.08,1.27-12.08,2.04-7.97,1.67-16,3.17-23.81,5.32-7.98,1.91-15.46,4.13-22.89,6.86-7.4,2.69-14.61,5.82-21.52,9.44-13.78,7.23-26.55,16.17-36.88,27.1-5.18,5.43-9.83,11.35-13.73,17.58-3.89,6.14-6.91,12.85-9.16,19.79l-24.36-7.63Z"/>
  <path class="cls-2" d="M778.83,86.85c-1.75.45-3.53.83-5.32,1.19l-5.34,1.09c-3.61.56-7.17,1.3-10.81,1.71-7.22,1.07-14.56,1.62-21.9,2.13-14.73.75-29.59.54-44.51-.53-29.85-2.1-59.79-7.13-89.9-12.66-30.06-5.54-60.56-11.63-91.4-15.93-15.4-2.29-30.88-4.04-46.37-5.69-15.53-1.43-31.09-2.74-46.71-3.4l-1.22,25.08c15.14.63,30.26,1.91,45.36,3.29,15.1,1.6,30.19,3.3,45.24,5.54,30.11,4.2,59.97,10.16,90.39,15.77,30.37,5.58,61.21,10.8,92.81,13.03,15.77,1.14,31.74,1.38,47.76.56,8.02-.54,16.03-1.14,24.03-2.32,4-.46,7.98-1.27,11.97-1.91l5.96-1.22c1.99-.38,3.97-.82,5.94-1.31l-5.98-24.42Z"/>
  <path class="cls-2" d="M365.1,54.05c-20.93.4-41.91,1.87-62.81,4.65l3.4,24.89c19.81-2.64,39.86-4.05,59.99-4.44l-.57-25.1Z"/>
  <path class="cls-2" d="M31.91,100.46l-8.09,23.81h-.01C15.84,121.65,7.9,118.95,0,116.15v-26.78c10.57,3.88,21.21,7.58,31.91,11.09Z"/>
  <path class="cls-2" d="M181.46,135.2c-21.5-2.77-42.84-6.75-64.05-11.35l-5.58,24.5c21.86,4.76,43.92,8.86,66.18,11.73l3.46-24.89Z"/>
</svg>