<?xml version="1.0" encoding="UTF-8"?>
<svg id="Layer_1" data-name="Layer 1" xmlns="http://www.w3.org/2000/svg" viewBox="0 0 1020 360">
  <defs>
    <style>
      .cls-1 {
        fill: #8bc9b6;
      }

      .cls-1, .cls-2, .cls-3, .cls-4 {
        stroke-width: 0px;
      }

      .cls-2 {
        fill: #8f84bc;
      }

      .cls-3 {
        fill: #049548;
      }

      .cls-4 {
        fill: #1d1c1a;
      }
    </style>
  </defs>
  <path class="cls-3" d="M921.6,22.94c-.35.07-.71.15-1.03.28-.3.12-.76.21-.91.32-.11.05-.21.09-.34.13l-.39.21c-.25.12-.55.32-.83.51-1.17.76-2.4,1.88-3.45,3.13-1.06,1.23-1.93,2.62-2.54,3.92l-.4.97c-.09.31-.17.62-.3.91l-.13.79c-.04.3-.09.46-.12.87-.01,1.3.03,2.66-.04,3.93-.39,5.13-1.95,8.58-4.71,11.41l-1.15,1.01c-.43.31-.86.62-1.3.9-.93.51-1.88,1.01-2.85,1.3-1.93.62-3.87.83-5.93.67-2.05-.16-4.24-.72-6.48-1.66-1.13-.54-2.24-1.02-3.37-1.6l-1.68-.89-.85-.44-.6-.3c-.78-.39-1.69-.85-2.05-1.01-.48-.23-.97-.44-1.45-.64-.95-.42-1.88-.76-2.79-1.09-1.83-.63-3.53-1.02-5.1-1.19-1.6-.16-2.95-.15-4.47.16-3.72.7-7.38,2.09-10.64,4.03-3.26,1.95-6.11,4.44-8.23,7.27-2.13,2.86-3.52,5.92-4.16,9.38-1.34,6.9.4,15.14,4.28,22.26,3.89,7.19,10.07,13.78,17.22,19.85,3.58,3.02,7.41,6.09,11.38,8.91,3.97,2.83,7.81,5.81,11.97,8.43,4.09,2.7,8.13,5.45,12.4,7.93l6.31,3.82c2.08,1.3,4.29,2.44,6.43,3.66l-10.35,18.31c-18.01-10.19-35.4-21.49-51.78-35.05-8.19-6.99-16.29-15.22-22.08-25.85-2.86-5.31-5.03-11.04-6.23-17.14-.62-3.03-.97-6.19-1.02-9.38-.07-3.19.17-6.44.81-9.69,1.18-6.47,4.05-12.87,8-18.08,3.95-5.25,8.87-9.49,14.28-12.72,5.42-3.22,11.34-5.46,17.55-6.64,3.44-.68,7.19-.78,10.6-.39,3.45.38,6.68,1.18,9.64,2.2,1.48.51,2.91,1.06,4.27,1.65.68.3,1.36.59,2.01.9l1.37.64.25.12.44-2.07c.27-.9.55-1.81.85-2.7.34-.85.67-1.7,1.05-2.54,1.5-3.29,3.42-6.17,5.64-8.79,2.23-2.6,4.74-4.94,7.78-6.98.76-.51,1.53-1.01,2.4-1.46.43-.23.83-.46,1.27-.68l1.4-.63c.98-.46,1.76-.66,2.64-.97.86-.31,1.73-.52,2.6-.72l4.9,20.49Z"/>
  <path class="cls-3" d="M384.29,326.45c20.84-7.57,40.03-19.81,58.49-33.71,18.51-13.89,36.44-29.39,55.98-43.68l12.4,16.98c-18.61,13.59-36.48,29.03-55.75,43.51-9.64,7.23-19.65,14.24-30.26,20.52-10.59,6.29-21.89,11.82-33.66,16.14l-7.19-19.75Z"/>
  <path class="cls-1" d="M25.61,304.51c3.56-.15,7.1-.13,10.66-.13,3.54.01,7.1-.05,10.64.03,7.09.19,14.17.28,21.23.7l-1.01,21c-6.84-.4-13.69-.5-20.53-.67-3.42-.08-6.84-.01-10.25-.03-3.42,0-6.84-.01-10.25.13l-.48-21.03Z"/>
  <path class="cls-1" d="M927.97,118.22c7.35-8.33,13.26-17.84,17.38-27.87,1.15-2.47,1.81-5.09,2.71-7.64l.32-.97.23-.98.46-1.96c.3-1.3.66-2.6.91-3.92.82-5.26,1.48-10.58,1.15-15.85l21.02-.74c.38,6.88-.4,13.74-1.5,20.48-.32,1.68-.75,3.31-1.14,4.98l-.59,2.48-.31,1.23-.39,1.21c-1.09,3.21-1.99,6.5-3.38,9.56-5.11,12.47-12.31,23.89-21.04,33.82l-15.82-13.84Z"/>
  <path class="cls-1" d="M365.89,331.97c6.27-1.44,12.37-3.4,18.4-5.52l7.19,19.75c-6.79,2.4-13.68,4.59-20.68,6.2l-4.91-20.44Z"/>
  <path class="cls-4" d="M629.4,186.68c13.7-3.78,27.63-6.67,41.66-8.92,7.01-1.21,14.06-2,21.12-2.86,7.07-.63,14.19-1.34,21.16-1.68,28.08-1.72,55.77-1.57,82.82-3.54l1.54,20.98c-28.18,2.05-55.91,1.88-83.09,3.57-6.83.34-13.5,1.02-20.21,1.61-6.68.83-13.38,1.57-20.02,2.72-13.3,2.13-26.51,4.87-39.5,8.47l-5.49-20.35Z"/>
  <path class="cls-2" d="M1020,188.18v22.24c-18.49-6.27-36.77-13.17-54.79-20.76-19.79-8.35-39.3-17.55-58.25-28.02-1.33-.73-2.65-1.47-3.98-2.22l10.34-18.31c4.42,2.49,8.89,4.92,13.39,7.27,15.17,7.96,30.79,15.2,46.67,21.9,15.33,6.46,30.89,12.41,46.62,17.9Z"/>
  <path class="cls-2" d="M921.6,22.94c3.31-.81,7.33-.4,11.14,1.17,1.91.78,3.73,1.83,5.38,3.09.83.62,1.61,1.3,2.32,2.03.72.71,1.48,1.56,2.15,2.42,5.48,6.91,8.35,17.03,8.51,27.42l21.02-.74c-.08-1.69-.11-3.38-.23-5.07-.16-1.69-.36-3.4-.63-5.1-.52-3.4-1.27-6.8-2.29-10.17-2.03-6.74-5.19-13.46-9.89-19.39-1.18-1.49-2.4-2.89-3.81-4.27-1.4-1.4-2.87-2.68-4.43-3.85-3.11-2.36-6.51-4.31-10.13-5.8-7.21-2.95-15.62-4.15-23.98-2.17l4.89,20.45Z"/>
  <path class="cls-2" d="M927.97,118.22c-7.73,8.74-16.79,16.4-26.76,22.52l-3.81,2.17-1.91,1.09c-.66.35-1.36.67-2.04,1.01l-8.17,4.01c-1.34.71-2.78,1.22-4.17,1.83l-4.2,1.74-4.2,1.74-4.31,1.49-4.31,1.5c-1.44.51-2.86,1.02-4.33,1.4l-8.78,2.52c-5.95,1.41-11.86,2.91-17.94,3.91-12.08,2.21-24.4,3.65-36.89,4.51l1.54,20.98c12.99-.9,26.09-2.4,39.12-4.8,6.54-1.07,13-2.7,19.49-4.24l9.64-2.76c1.61-.43,3.19-.98,4.78-1.54l4.74-1.65,4.74-1.65,4.64-1.92,4.64-1.93c1.54-.67,3.11-1.23,4.6-2.01l9.03-4.43c.75-.38,1.5-.72,2.25-1.13l2.25-1.29,4.51-2.58c11.81-7.25,22.47-16.24,31.65-26.64l-15.8-13.84Z"/>
  <path class="cls-2" d="M629.4,186.68l-4.4,1.17-4.36,1.3-8.71,2.62-8.62,2.91-4.31,1.46-4.25,1.6-8.51,3.21-8.4,3.49-4.2,1.74-4.15,1.88-8.28,3.78-8.15,4.05-4.07,2.04c-1.36.68-2.67,1.44-4.01,2.16l-8,4.35c-2.63,1.5-5.23,3.07-7.85,4.6-5.27,3.01-10.31,6.41-15.45,9.65-2.54,1.68-5.01,3.44-7.52,5.15-2.5,1.72-5.01,3.44-7.42,5.26l12.4,16.98c2.31-1.73,4.67-3.36,7.03-4.98s4.71-3.29,7.1-4.87c4.86-3.05,9.61-6.29,14.6-9.13,2.48-1.45,4.94-2.94,7.42-4.36l7.57-4.12c1.26-.68,2.51-1.38,3.8-2.04l3.85-1.92,7.72-3.84,7.84-3.58,3.92-1.78,3.99-1.65,7.96-3.3,8.07-3.03,4.04-1.52,4.08-1.38,8.17-2.76,8.25-2.48,4.13-1.25,4.17-1.1-5.46-20.3Z"/>
  <path class="cls-2" d="M365.89,331.97c-1.44.38-2.9.7-4.38.99l-4.39.91c-2.97.47-5.89,1.09-8.88,1.44-5.93.9-11.97,1.36-18,1.78-12.11.63-24.32.46-36.58-.44-24.53-1.76-49.15-5.97-73.89-10.6-24.71-4.64-49.78-9.74-75.13-13.34-12.66-1.92-25.38-3.38-38.11-4.76-12.76-1.19-25.55-2.29-38.4-2.85l-1.01,21c12.44.52,24.87,1.6,37.28,2.75,12.41,1.34,24.81,2.76,37.19,4.64,24.75,3.52,49.29,8.51,74.3,13.21,24.96,4.67,50.31,9.05,76.28,10.91,12.96.95,26.09,1.15,39.25.47,6.59-.46,13.18-.95,19.75-1.95,3.29-.39,6.56-1.06,9.84-1.6l4.9-1.02c1.64-.32,3.26-.68,4.89-1.1l-4.91-20.45Z"/>
  <path class="cls-2" d="M26.31,325.51h-.22c-8.72.18-17.42.59-26.09,1.27v-21.09c8.62-.64,17.23-1.03,25.84-1.2h0s.47,21.02.47,21.02Z"/>
</svg>