<?xml version="1.0" encoding="utf-8"?>
<!-- Generator: Adobe Illustrator 27.2.0, SVG Export Plug-In . SVG Version: 6.00 Build 0)  -->
<svg version="1.1" id="Layer_1" xmlns="http://www.w3.org/2000/svg" xmlns:xlink="http://www.w3.org/1999/xlink" x="0px" y="0px"
	 viewBox="0 0 1920 1080" style="enable-background:new 0 0 1920 1080;" xml:space="preserve">
<style type="text/css">
	.st0{fill:#E8DDEF;}
	.st1{fill:#9185BE;}
	.st2{fill:#009640;}
	.st3{fill:#FFFFFF;}
	.st4{fill:#1D1D1B;}
	.st5{fill:#8BCBB7;}
	.st6{fill:none;stroke:#A47FB1;stroke-width:2;stroke-miterlimit:10;}
	.st7{fill:#049548;}
	.st8{fill:#8BC9B6;}
	.st9{fill:#1D1C1A;}
	.st10{fill:#8F84BC;}
</style>
<g>
	<g>
		<g>
			<g>
				<path class="st2" d="M1644.95,422.05c-49.9,19.25-98.88,40.83-146.96,64.24l-16.17-33.11c49.01-23.87,98.94-45.86,149.8-65.49
					L1644.95,422.05z"/>
			</g>
			<g>
				<path class="st2" d="M1757.93,382.23c-28.54,9.12-56.93,18.72-85,29.22l-12.79-34.56c28.61-10.7,57.55-20.48,86.64-29.78
					L1757.93,382.23z"/>
			</g>
			<path class="st2" d="M1364.86,721.13c-9.35-13.16-20.05-25.49-31.89-36.85c-11.86-11.34-24.72-21.81-38.26-31.46
				c-3.4-2.4-6.85-4.74-10.3-7.08l-5.26-3.41l-2.63-1.71l-2.67-1.65c-3.56-2.2-7.12-4.41-10.77-6.49c-1.82-1.05-3.61-2.14-5.45-3.16
				l-5.54-3.02c-3.7-2-7.37-4.06-11.09-6.02l-11.3-5.63c-1.89-0.92-3.75-1.91-5.66-2.79l-5.75-2.6c-3.84-1.72-7.65-3.51-11.51-5.18
				l14.53-33.86c4.14,1.79,8.22,3.7,12.34,5.55l6.16,2.8c2.05,0.94,4.05,1.99,6.07,2.98l12.11,6.04c3.99,2.1,7.93,4.3,11.9,6.45
				l5.94,3.24c1.97,1.1,3.91,2.27,5.87,3.4c3.92,2.25,7.78,4.63,11.63,7.02l2.89,1.79l2.86,1.85l5.71,3.71
				c3.77,2.54,7.53,5.11,11.25,7.73c14.85,10.58,29.12,22.17,42.46,34.94c13.32,12.79,25.61,26.88,36.45,42.16L1364.86,721.13z"/>
			<path class="st2" d="M1136.16,788.71l-0.72,3.38c-0.25,1.13-0.37,2.27-0.56,3.4c-0.34,2.27-0.73,4.53-1.04,6.8l-0.66,6.82
				l-0.17,1.7c-0.05,0.57-0.05,1.14-0.07,1.7l-0.13,3.41c-0.09,2.27-0.23,4.55-0.11,6.81l0.16,6.79c0.43,4.49,0.67,9.03,1.4,13.4
				c1.34,8.81,3.71,17.49,6.8,25.94c3.12,8.44,7.15,16.58,11.81,24.34l-31.5,19.12c-5.84-9.71-10.89-19.93-14.84-30.61
				c-3.93-10.69-6.94-21.78-8.68-33.13c-0.93-5.7-1.28-11.34-1.78-17.01c-0.1-2.83-0.15-5.66-0.22-8.5
				c-0.13-2.84,0.02-5.66,0.13-8.48l0.17-4.23c0.03-0.7,0.04-1.41,0.1-2.11l0.2-2.1l0.83-8.4c0.37-2.78,0.84-5.54,1.26-8.32
				c0.23-1.38,0.4-2.78,0.69-4.14l0.86-4.1L1136.16,788.71z"/>
			<path class="st2" d="M814.54,560.57c-12.27-3.76-24.29-8.87-35.64-15.67c-1.44-0.79-2.8-1.78-4.2-2.67
				c-1.39-0.92-2.78-1.82-4.15-2.77l-4.02-3.03c-1.34-1.02-2.69-2-3.95-3.15c-2.55-2.23-5.16-4.38-7.52-6.88l-3.6-3.65l-3.36-3.92
				c-2.31-2.55-4.25-5.45-6.3-8.24c-1.05-1.38-1.91-2.9-2.82-4.38l-2.69-4.47c-3.35-6.1-6.1-12.55-8.18-19.16
				c-4.19-13.24-5.67-27.06-5.07-40.4c0.59-13.38,3.21-26.33,7.19-38.61c3.99-12.29,9.28-23.97,15.66-34.96
				c3.19-5.5,6.64-10.83,10.35-15.98c3.68-5.13,7.72-10.21,11.78-14.78c8.1-9.35,16.75-17.98,25.62-26.1l24.88,27.19
				c-8.08,7.4-15.7,15.03-22.65,23.05c-3.57,4.03-6.68,7.95-9.7,12.15c-3,4.17-5.8,8.5-8.38,12.94
				c-5.16,8.88-9.37,18.26-12.48,27.82c-3.11,9.56-5.04,19.35-5.45,28.94c-0.91,19.21,4.46,37.39,16.48,51.33l2.23,2.63l2.46,2.47
				c1.57,1.71,3.43,3.19,5.19,4.75c0.85,0.81,1.84,1.5,2.79,2.22l2.85,2.17l3.02,2c1.02,0.65,1.97,1.38,3.06,1.96
				c8.37,5.01,17.62,8.99,27.32,11.96L814.54,560.57z"/>
			<polygon class="st3" points="1335.99,575.54 1328.38,580.21 1320.84,585 1305.76,594.58 1285.81,563.59 1301.18,553.83 
				1308.87,548.95 1316.63,544.18 			"/>
			<path class="st3" d="M1863.49,351.99l-15.32,4c-5.11,1.33-10.22,2.65-15.29,4.1l-15.25,4.24l-7.62,2.12l-7.59,2.23l-10.3-35.38
				l7.74-2.27l7.77-2.16l15.54-4.33c5.17-1.48,10.38-2.82,15.58-4.17l15.61-4.07L1863.49,351.99z"/>
			<path class="st3" d="M930.12,108.33c-1.54-4.53-3.43-8.98-5.64-13.33l32.82-16.75c3,5.9,5.62,12.06,7.77,18.42L930.12,108.33z"/>
			<path class="st3" d="M793.62,311.74c2.23-2,4.44-4.06,6.69-6.01l6.75-5.84l23.87,28.08l-6.29,5.44c-2.1,1.81-4.09,3.68-6.14,5.51
				L793.62,311.74z"/>
			<path class="st2" d="M807.07,299.89c7.44-6.31,14.93-12.37,22.37-18.34l23.05,28.76c-7.32,5.88-14.55,11.73-21.55,17.67
				L807.07,299.89z"/>
			<path class="st3" d="M1043.18,563.37c-20.52-1.64-41.12-2.07-61.66-1.35l-1.37-36.82c22.04-0.78,44.11-0.32,66.08,1.44
				L1043.18,563.37z"/>
			<path class="st3" d="M1400.63,827.22c-0.12-18.84-3.55-37.86-9.75-55.96l34.86-11.95c7.4,21.65,11.59,44.5,11.74,67.69
				L1400.63,827.22z"/>
			<path class="st3" d="M1140.08,773.22c-0.44,1.27-0.75,2.57-1.1,3.85l-1.03,3.87c-0.76,2.57-1.23,5.18-1.79,7.77l-36.08-7.52
				c0.68-3.14,1.28-6.31,2.17-9.39l1.24-4.64c0.42-1.55,0.8-3.11,1.32-4.61L1140.08,773.22z"/>
			<path class="st4" d="M1236.67,957.29c20.01,5.23,41.49,5.04,62,0.07c20.5-4.94,40.01-14.6,56.2-27.96l23.45,28.42
				c-20.68,17.04-45.09,29.09-71.02,35.36c-12.96,3.14-26.34,4.78-39.79,4.81c-6.73,0.05-13.47-0.45-20.18-1.23
				c-6.71-0.82-13.38-2.17-19.93-3.81L1236.67,957.29z"/>
			<path class="st4" d="M1672.93,411.44c-4.67,1.74-9.38,3.39-14.02,5.21l-13.96,5.39l-13.33-34.35l14.23-5.5
				c4.73-1.86,9.53-3.54,14.29-5.32L1672.93,411.44z"/>
			<path class="st4" d="M1497.99,486.29c-2.66,1.3-5.34,2.55-7.98,3.88l-7.92,3.99l-15.85,7.98c-5.28,2.66-10.49,5.47-15.74,8.2
				c-5.23,2.76-10.49,5.47-15.7,8.26l-15.58,8.5c-5.19,2.84-10.4,5.63-15.53,8.58l-15.43,8.75c-2.57,1.47-5.16,2.89-7.7,4.4
				l-7.64,4.5l-18.62-31.8l7.79-4.59c2.59-1.54,5.24-2.99,7.85-4.49l15.74-8.93c5.22-3.01,10.54-5.86,15.83-8.75l15.88-8.66
				c5.32-2.85,10.67-5.61,16.01-8.42c5.35-2.78,10.66-5.64,16.04-8.36l16.16-8.14l8.08-4.07c2.69-1.36,5.42-2.64,8.13-3.96
				L1497.99,486.29z"/>
			<path class="st4" d="M927.47,172.2c-6.53,16.95-16.94,33.07-29.37,47.73c-6.2,7.36-12.97,14.34-20.08,21.01
				c-7.26,6.74-14.88,13.29-22.73,19.77l23.46,28.41c8.21-6.79,16.4-13.8,24.4-21.24c8.09-7.57,15.84-15.58,23.07-24.14
				c14.44-17.08,27.14-36.34,35.64-58.31L927.47,172.2z"/>
			<path class="st5" d="M669.89-57.12c24.57,8.13,48.82,17.23,72.67,27.27c23.83,10.08,47.26,21.1,70.21,33.05l8.58,4.53l8.53,4.62
				c5.66,3.08,11.14,6.2,16.58,9.45c10.85,6.48,21.29,13.4,31.11,20.87c9.81,7.47,18.93,15.54,26.96,24.25
				c8.03,8.71,14.89,18.11,19.96,28.08l32.82-16.75c-6.9-13.55-15.82-25.59-25.65-36.26c-9.85-10.68-20.59-20.12-31.75-28.62
				c-11.18-8.5-22.76-16.15-34.55-23.19c-5.88-3.51-11.87-6.92-17.79-10.14l-8.86-4.8l-8.91-4.71
				c-23.84-12.41-48.17-23.86-72.92-34.32c-24.76-10.43-49.94-19.87-75.44-28.31L669.89-57.12z"/>
			<path class="st5" d="M855.29,260.7c-8.41,6.95-17.08,13.82-25.85,20.84l23.05,28.76c8.64-6.93,17.47-13.92,26.27-21.18
				L855.29,260.7z"/>
			<path class="st5" d="M930.12,108.33c1.7,5.13,2.92,10.36,3.66,15.68c0.76,5.3,0.99,10.64,0.75,16.02
				c-0.48,10.76-2.98,21.61-7.06,32.16l34.39,13.23c5.28-13.66,8.79-28.44,9.48-43.67c0.35-7.6,0.02-15.29-1.06-22.85
				c-1.05-7.55-2.8-15.02-5.19-22.23L930.12,108.33z"/>
			<path class="st5" d="M814.54,560.57c7.22,2.14,14.51,3.96,21.88,5.17c3.67,0.71,7.38,1.12,11.08,1.62
				c1.84,0.22,3.65,0.36,5.47,0.54c1.82,0.18,3.64,0.34,5.46,0.43l5.44,0.33l5.41,0.17c1.81,0.07,3.6,0.09,5.39,0.09
				c1.79,0,3.59,0.03,5.37,0.01c7.13-0.08,14.19-0.34,21.17-0.76c13.94-0.84,27.59-2.2,40.93-3.43c6.69-0.63,13.28-1.19,19.83-1.69
				c6.54-0.53,13.03-0.71,19.53-1.03l-1.37-36.82c-6.97,0.33-13.97,0.55-20.89,1.11c-6.9,0.52-13.75,1.12-20.5,1.75
				c-13.53,1.25-26.74,2.56-39.74,3.34c-6.49,0.39-12.91,0.62-19.28,0.7c-1.59,0.02-3.17-0.01-4.75-0.01
				c-1.58,0-3.16-0.01-4.73-0.08l-4.7-0.15l-4.66-0.29c-1.56-0.07-3.1-0.21-4.63-0.37c-1.53-0.15-3.09-0.27-4.6-0.45
				c-2.98-0.42-5.99-0.73-8.94-1.31c-5.95-0.97-11.77-2.45-17.48-4.13L814.54,560.57z"/>
			<path class="st5" d="M1043.18,563.37l13.28,1.34c2.21,0.24,4.43,0.42,6.64,0.7l6.61,0.92l4.91-36.52l-7.08-0.98
				c-2.36-0.29-4.74-0.5-7.1-0.75l-14.22-1.43L1043.18,563.37z"/>
			<path class="st5" d="M1098.52,570.95c18.55,3.67,36.93,8.15,55.03,13.64c18.04,5.64,35.83,12.08,53.22,19.49l14.53-33.86
				c-18.62-7.93-37.67-14.83-56.98-20.86c-19.36-5.87-39.03-10.67-58.88-14.59L1098.52,570.95z"/>
			<path class="st5" d="M1364.86,721.13c1.44,1.91,2.72,3.92,4.02,5.91l1.96,2.99c0.66,0.99,1.32,1.99,1.9,3.02l3.63,6.13
				c0.63,1.02,1.18,2.05,1.73,3.08c0.55,1.04,1.14,2.05,1.66,3.1c2.17,4.16,4.16,8.42,6.04,12.73c1.82,4.34,3.55,8.71,5.06,13.16
				l34.86-11.95c-1.81-5.33-3.87-10.55-6.05-15.73c-2.24-5.15-4.63-10.25-7.23-15.23c-0.63-1.26-1.33-2.48-1.99-3.72
				c-0.67-1.24-1.34-2.48-2.06-3.66l-4.26-7.19c-0.69-1.21-1.45-2.37-2.22-3.53l-2.28-3.49c-1.52-2.33-3.03-4.66-4.68-6.88
				L1364.86,721.13z"/>
			<path class="st5" d="M1400.63,827.22c0.13,19.76-3.49,39.31-11.2,56.91c-0.47,1.11-0.95,2.21-1.49,3.28
				c-0.53,1.07-1.02,2.18-1.57,3.23c-1.14,2.08-2.18,4.21-3.44,6.23c-2.36,4.12-5.12,8.03-7.98,11.85
				c-1.49,1.87-2.94,3.77-4.55,5.56c-1.53,1.85-3.22,3.57-4.85,5.33c-3.39,3.42-6.88,6.76-10.66,9.8l23.45,28.42
				c4.8-3.89,9.3-8.16,13.66-12.58c2.13-2.26,4.28-4.5,6.28-6.89c2.07-2.32,3.98-4.79,5.91-7.24c3.75-4.98,7.34-10.12,10.48-15.55
				c1.65-2.67,3.06-5.48,4.55-8.24c0.72-1.39,1.36-2.8,2.05-4.2c0.69-1.4,1.32-2.82,1.93-4.25c10-22.83,14.45-47.6,14.29-71.89
				L1400.63,827.22z"/>
			<path class="st5" d="M1236.67,957.29c-8.57-2.27-16.96-5.4-24.97-9.4c-7.99-4.04-15.67-8.82-22.82-14.35
				c-7.13-5.55-13.82-11.73-19.85-18.51c-6.01-6.79-11.48-14.09-16.17-21.84l-31.5,19.12c5.87,9.69,12.67,18.79,20.17,27.25
				c7.53,8.45,15.87,16.17,24.83,23.14c8.98,6.94,18.68,13.01,28.88,18.15c10.23,5.1,21.03,9.16,32.18,12.09L1236.67,957.29z"/>
			<path class="st5" d="M1140.08,773.22l2.29-7.11c0.82-2.36,1.75-4.68,2.61-7.03c0.83-2.36,1.87-4.65,2.86-6.95
				c0.99-2.31,1.95-4.63,3.09-6.87c4.22-9.13,9.28-17.93,14.76-26.46c2.69-4.3,5.69-8.4,8.61-12.56c3.11-4.03,6.13-8.09,9.48-12.01
				c6.58-7.88,13.52-15.51,20.95-22.76c7.4-7.27,15.11-14.3,23.14-21.05c8.04-6.74,16.34-13.25,24.83-19.6
				c17.04-12.63,34.84-24.59,53.05-36.25l-19.95-30.98c-18.55,11.89-37.04,24.29-55.08,37.66c-9,6.72-17.88,13.69-26.58,20.98
				c-8.68,7.3-17.12,14.99-25.3,23.02c-8.19,8.01-15.98,16.53-23.39,25.41c-3.74,4.39-7.26,9.07-10.81,13.7
				c-3.37,4.76-6.81,9.49-9.92,14.44c-6.32,9.83-12.16,20.02-17.12,30.7c-1.32,2.62-2.46,5.35-3.63,8.06
				c-1.16,2.71-2.37,5.4-3.36,8.19c-1.03,2.77-2.11,5.52-3.09,8.32l-2.73,8.47L1140.08,773.22z"/>
			<polygon class="st5" points="1335.83,575.64 1354.29,564.34 1372.92,553.34 1354.3,521.54 1335.3,532.77 1316.47,544.28 			"/>
			<path class="st5" d="M1863.49,351.99c122-31.17,247.1-50.29,372.84-56.56l-1.83-36.8c-128.24,6.4-255.77,25.89-380.12,57.66
				L1863.49,351.99z"/>
			<polygon class="st5" points="1757.93,382.23 1780.12,375.28 1802.42,368.68 1792.12,333.3 1769.39,340.02 1746.78,347.1 			"/>
			<path class="st4" d="M1098.52,570.95l-14.38-2.52c-1.2-0.2-2.39-0.44-3.6-0.61l-3.61-0.5l-7.23-1l4.91-36.52l7.74,1.07l3.87,0.54
				c1.29,0.18,2.57,0.44,3.85,0.65l15.38,2.7L1098.52,570.95z"/>
		</g>
	</g>
</g>
</svg>
