<?xml version="1.0" encoding="utf-8"?>
<!-- Generator: Adobe Illustrator 27.3.1, SVG Export Plug-In . SVG Version: 6.00 Build 0)  -->
<svg version="1.1" id="Layer_1" xmlns="http://www.w3.org/2000/svg" xmlns:xlink="http://www.w3.org/1999/xlink" x="0px" y="0px"
	 viewBox="0 0 2004.69 476.58" style="enable-background:new 0 0 2004.69 476.58;" xml:space="preserve">
<style type="text/css">
	.st0{fill:#E8DDEF;}
	.st1{fill:#9185BE;}
	.st2{fill:#009640;}
	.st3{fill:#FFFFFF;}
	.st4{fill:#1D1D1B;}
	.st5{fill:#8BCBB7;}
	.st6{fill:none;stroke:#A47FB1;stroke-width:2;stroke-miterlimit:10;}
	.st7{fill:#049548;}
	.st8{fill:#8BC9B6;}
	.st9{fill:#1D1C1A;}
	.st10{fill:#8F84BC;}
</style>
<g>
	<g>
		<g>
			<g>
				<path class="st7" d="M379.82,336.75l3.73,0.53l3.85,0.52c2.58,0.36,5.18,0.75,7.81,1.21c5.24,0.91,10.56,2.07,15.89,3.76
					c5.31,1.71,10.68,3.91,15.7,7.15c2.49,1.63,4.94,3.42,7.15,5.53l1.66,1.58c0.53,0.55,1.03,1.14,1.54,1.71
					c0.5,0.58,1.02,1.13,1.51,1.75c0.48,0.63,0.96,1.26,1.42,1.9c3.65,5.19,5.94,11.19,6.96,17.23c1.02,6.06,0.83,12.18-0.37,18.06
					c-1.2,5.88-3.44,11.53-6.64,16.68c-3.2,5.13-7.41,9.77-12.53,13.35l-1.96,1.29l-2.02,1.12l-2.03,1.09
					c-0.68,0.36-1.4,0.61-2.1,0.92c-1.41,0.58-2.81,1.21-4.28,1.59c-1.46,0.41-2.9,0.94-4.39,1.17c-5.91,1.29-11.95,1.49-17.82,0.76
					c-11.73-1.51-22.91-6.62-31.6-14.92l-1.61-1.57c-0.54-0.52-1-1.13-1.5-1.69c-0.97-1.15-2-2.28-2.81-3.52l-1.28-1.83
					c-0.42-0.61-0.86-1.21-1.21-1.87c-0.73-1.29-1.48-2.57-2.18-3.87c-2.66-5.29-4.43-10.93-5.45-16.63
					c-1-5.71-1.28-11.49-0.83-17.18c0.47-5.69,1.59-11.3,3.31-16.72l14.92,4.77c-1.36,4.28-2.24,8.71-2.62,13.16
					c-0.35,4.46-0.12,8.92,0.64,13.23c0.77,4.31,2.08,8.47,4,12.29l1.57,2.78c0.24,0.48,0.57,0.9,0.87,1.33l0.91,1.3
					c0.57,0.91,1.29,1.65,1.95,2.44c0.35,0.39,0.64,0.81,1.02,1.17l1.13,1.08c6.03,5.78,14.25,9.61,22.71,10.68
					c4.23,0.52,8.5,0.36,12.54-0.53c1.04-0.14,1.98-0.54,2.98-0.8c1.01-0.24,1.92-0.69,2.86-1.07c0.46-0.21,0.96-0.35,1.4-0.6
					l1.33-0.73l1.33-0.72l1.23-0.81c6.47-4.51,11.13-12.14,12.79-20.33c1.7-8.18,0.38-16.87-4.07-23.15l-0.86-1.15
					c-0.3-0.38-0.67-0.75-0.99-1.13c-0.34-0.37-0.66-0.77-1-1.13l-1.11-1.04c-1.46-1.41-3.15-2.63-4.9-3.79
					c-3.54-2.3-7.67-4.03-12.03-5.43c-4.38-1.39-9.02-2.42-13.81-3.25c-2.39-0.42-4.82-0.78-7.28-1.13l-3.71-0.5l-3.83-0.54
					L379.82,336.75z"/>
			</g>
			<path class="st7" d="M1159.76,76.31c-0.26,0.05-0.53,0.11-0.77,0.21c-0.22,0.09-0.57,0.16-0.68,0.24
				c-0.08,0.04-0.16,0.07-0.25,0.1l-0.29,0.16c-0.19,0.09-0.41,0.24-0.62,0.38c-0.87,0.57-1.79,1.4-2.57,2.33
				c-0.79,0.92-1.44,1.95-1.89,2.92l-0.3,0.72c-0.07,0.23-0.13,0.46-0.22,0.68l-0.1,0.59c-0.03,0.22-0.07,0.34-0.09,0.65
				c-0.01,0.97,0.02,1.98-0.03,2.93c-0.29,3.82-1.45,6.39-3.51,8.5l-0.86,0.75c-0.32,0.23-0.64,0.46-0.97,0.67
				c-0.69,0.38-1.4,0.75-2.12,0.97c-1.44,0.46-2.88,0.62-4.42,0.5c-1.53-0.12-3.16-0.54-4.83-1.24c-0.84-0.4-1.67-0.76-2.51-1.19
				l-1.25-0.66l-0.63-0.33l-0.45-0.22c-0.58-0.29-1.26-0.63-1.53-0.75c-0.36-0.17-0.72-0.33-1.08-0.48
				c-0.71-0.31-1.4-0.57-2.08-0.81c-1.36-0.47-2.63-0.76-3.8-0.89c-1.19-0.12-2.2-0.11-3.33,0.12c-2.77,0.52-5.5,1.56-7.93,3
				c-2.43,1.45-4.55,3.31-6.13,5.42c-1.59,2.13-2.62,4.41-3.1,6.99c-1,5.14,0.3,11.28,3.19,16.59c2.9,5.36,7.5,10.27,12.83,14.79
				c2.67,2.25,5.52,4.54,8.48,6.64c2.96,2.11,5.82,4.33,8.92,6.28c3.05,2.01,6.06,4.06,9.24,5.91l4.7,2.85
				c1.55,0.97,3.2,1.82,4.79,2.73l-7.71,13.64c-13.42-7.59-26.38-16.01-38.58-26.12c-6.1-5.21-12.14-11.34-16.45-19.26
				c-2.13-3.96-3.75-8.23-4.64-12.77c-0.46-2.26-0.72-4.61-0.76-6.99c-0.05-2.38,0.13-4.8,0.6-7.22c0.88-4.82,3.02-9.59,5.96-13.47
				c2.94-3.91,6.61-7.07,10.64-9.48c4.04-2.4,8.45-4.07,13.08-4.95c2.56-0.51,5.36-0.58,7.9-0.29c2.57,0.28,4.98,0.88,7.18,1.64
				c1.1,0.38,2.17,0.79,3.18,1.23c0.51,0.22,1.01,0.44,1.5,0.67l1.02,0.48l0.19,0.09l0.33-1.54c0.2-0.67,0.41-1.35,0.63-2.01
				c0.25-0.63,0.5-1.27,0.78-1.89c1.12-2.45,2.55-4.6,4.2-6.55c1.66-1.94,3.53-3.68,5.8-5.2c0.57-0.38,1.14-0.75,1.79-1.09
				c0.32-0.17,0.62-0.34,0.95-0.51l1.04-0.47c0.73-0.34,1.31-0.49,1.97-0.72c0.64-0.23,1.29-0.39,1.94-0.54L1159.76,76.31z"/>
			<path class="st7" d="M759.39,302.47c15.53-5.64,29.83-14.76,43.58-25.12c13.79-10.35,27.15-21.9,41.71-32.55l9.24,12.65
				c-13.87,10.13-27.18,21.63-41.54,32.42c-7.18,5.39-14.64,10.61-22.55,15.29c-7.89,4.69-16.31,8.81-25.08,12.03L759.39,302.47z"/>
			<path class="st7" d="M1473.93,182.93c16.27-10.14,31.33-22.31,44.07-36.34c6.34-7.06,12.16-14.64,17.14-22.59
				c4.96-7.95,9.13-16.34,11.59-24.91c2.46-8.54,3.05-17.27,0.67-24.89c-1.17-3.81-3.05-7.36-5.56-10.57l-0.97-1.19
				c-0.31-0.4-0.64-0.8-1.02-1.16l-1.09-1.12l-0.54-0.56l-0.27-0.28l-0.21-0.16c-0.27-0.21-0.54-0.42-0.79-0.65
				c-0.27-0.22-0.6-0.35-0.89-0.55l-0.44-0.29l-0.51-0.2c-0.34-0.13-0.65-0.32-1.01-0.42c-1.42-0.48-3.02-0.66-4.67-0.7l-1.25,0.1
				c-0.21,0.02-0.42,0.01-0.63,0.05l-0.63,0.13c-0.42,0.09-0.84,0.13-1.26,0.24l-1.24,0.38c-0.42,0.09-0.81,0.29-1.21,0.46
				c-0.39,0.18-0.81,0.3-1.19,0.51c-0.74,0.45-1.55,0.79-2.23,1.34c-1.48,0.92-2.66,2.21-3.82,3.48l-0.75,1.06
				c-0.25,0.35-0.54,0.68-0.72,1.08c-0.4,0.79-0.87,1.45-1.24,2.46c-0.38,0.94-0.84,1.83-1.11,2.83c-0.3,0.99-0.69,1.93-0.88,2.96
				c-1.03,4.03-1.48,8.34-1.44,12.72l-15.67,0.15c-0.05-5.53,0.5-11.17,1.93-16.75c0.29-1.4,0.81-2.78,1.24-4.16
				c0.4-1.39,1.04-2.73,1.6-4.09c0.5-1.32,1.36-2.78,2.12-4.17c0.37-0.72,0.86-1.36,1.32-2.02c0.47-0.66,0.93-1.32,1.43-1.96
				c2.11-2.44,4.41-4.76,7.12-6.52c1.29-0.97,2.74-1.69,4.15-2.47c0.71-0.37,1.47-0.65,2.21-0.97c0.75-0.31,1.48-0.63,2.27-0.84
				l2.33-0.69c0.78-0.2,1.59-0.32,2.39-0.48l1.2-0.21c0.4-0.06,0.82-0.08,1.22-0.11c0.82-0.06,1.64-0.13,2.46-0.17
				c3.31,0.01,6.68,0.41,9.98,1.52c0.82,0.25,1.62,0.64,2.43,0.98l1.2,0.53l1.15,0.67c0.76,0.47,1.54,0.89,2.25,1.43
				c0.7,0.56,1.4,1.12,2.09,1.7l0.51,0.43l0.38,0.39l0.75,0.77l1.5,1.55c0.51,0.5,0.98,1.06,1.44,1.63l1.38,1.69
				c3.6,4.6,6.45,9.95,8.18,15.62c1.75,5.67,2.39,11.58,2.17,17.29c-0.22,5.72-1.25,11.23-2.75,16.49
				c-3.04,10.52-7.85,20.04-13.36,28.91c-5.55,8.86-11.87,17.07-18.78,24.77c-13.94,15.36-30.06,28.32-47.43,39.16L1473.93,182.93z"
				/>
			<path class="st8" d="M492.12,286.12c2.65-0.11,5.29-0.1,7.94-0.1c2.64,0.01,5.29-0.04,7.93,0.02c5.28,0.14,10.56,0.21,15.82,0.52
				l-0.75,15.65c-5.1-0.3-10.2-0.37-15.3-0.5c-2.55-0.06-5.1-0.01-7.64-0.02c-2.55,0-5.1-0.01-7.64,0.1L492.12,286.12z"/>
			<path class="st8" d="M288.23,315.07c17.21,5.74,34.69,10.65,52.37,14.6l-3.42,15.29c-18.23-4.08-36.22-9.13-53.91-15.03
				L288.23,315.07z"/>
			<path class="st8" d="M1689.5,160.84c4.5-1.81,9.04-3.53,13.49-5.53l6.2,14.39c-4.61,2.07-9.36,3.88-14.07,5.77L1689.5,160.84z"/>
			<path class="st8" d="M1509.82,86.15c0.03,4.39,0.55,8.85,1.48,13.26l-15.34,3.19c-1.11-5.31-1.76-10.75-1.81-16.29L1509.82,86.15
				z"/>
			<path class="st7" d="M1511.3,99.41c0.78,3.63,1.79,7.22,3.03,10.72c1.29,3.5,2.75,6.87,4.54,10.12l-13.8,7.41
				c-2.15-3.91-3.95-8.05-5.48-12.22c-1.49-4.2-2.7-8.48-3.63-12.85L1511.3,99.41z"/>
			<path class="st8" d="M1292.51,216.84c17.31,3.7,35.15,5.13,52.97,4.65l0.46,15.66c-18.96,0.51-38.04-1-56.72-4.99L1292.51,216.84
				z"/>
			<path class="st8" d="M1164.5,147.31c5.48-6.21,9.88-13.29,12.95-20.77c0.86-1.84,1.35-3.79,2.02-5.69l0.24-0.72l0.17-0.73
				l0.34-1.46c0.22-0.97,0.49-1.94,0.68-2.92c0.61-3.92,1.1-7.88,0.86-11.81l15.66-0.55c0.28,5.13-0.3,10.24-1.12,15.26
				c-0.24,1.25-0.56,2.47-0.85,3.71l-0.44,1.85l-0.23,0.92l-0.29,0.9c-0.81,2.39-1.48,4.84-2.52,7.12
				c-3.81,9.29-9.17,17.8-15.68,25.2L1164.5,147.31z"/>
			<path class="st8" d="M745.68,306.58c4.67-1.07,9.22-2.53,13.71-4.11l5.36,14.72c-5.06,1.79-10.19,3.42-15.41,4.62L745.68,306.58z
				"/>
			<path class="st9" d="M942.03,198.32c10.21-2.82,20.59-4.97,31.04-6.65c5.22-0.9,10.48-1.49,15.74-2.13
				c5.27-0.47,10.57-1,15.77-1.25c20.92-1.28,41.56-1.17,61.71-2.64l1.15,15.63c-21,1.53-41.66,1.4-61.91,2.66
				c-5.09,0.25-10.06,0.76-15.06,1.2c-4.98,0.62-9.97,1.17-14.92,2.03c-9.91,1.59-19.75,3.63-29.43,6.31L942.03,198.32z"/>
			<path class="st9" d="M447.37,382.02c1.19,10.39-0.98,20.78-5.9,29.84l-13.76-7.49c3.4-6.2,4.91-13.63,4.09-20.54L447.37,382.02z"
				/>
			<path class="st9" d="M347.75,355.88c1.75-5.49,4.1-10.8,7.16-15.74c3-4.9,6.49-9.4,10.36-13.54c7.73-8.3,16.96-14.84,26.68-20.03
				c4.87-2.6,9.91-4.83,15.04-6.73c5.12-1.91,10.42-3.51,15.55-4.76c5.15-1.44,10.37-2.44,15.57-3.54c2.61-0.51,5.23-0.9,7.84-1.35
				l3.92-0.66l3.94-0.51l2.08,15.53l-3.73,0.48l-3.7,0.62c-2.47,0.43-4.95,0.79-7.4,1.27c-4.88,1.04-9.8,1.98-14.58,3.32
				c-4.89,1.19-9.47,2.58-14.02,4.28c-4.53,1.68-8.95,3.63-13.18,5.89c-8.44,4.51-16.26,10.09-22.59,16.91
				c-3.17,3.39-6.02,7.08-8.41,10.97c-2.38,3.83-4.23,8.02-5.61,12.35L347.75,355.88z"/>
			<path class="st9" d="M1626.56,175.73c-1.07,0.08-2.14,0.2-3.21,0.24l-3.21,0.03l-6.42,0.08c-4.21-0.12-8.33-0.36-12.49-0.99
				c-8.28-1.17-16.47-3.31-24.38-6.26c-7.92-2.92-15.47-6.85-22.56-11.39c-7.09-4.57-13.69-9.86-19.58-15.81l-11.19,10.97
				c6.76,6.84,14.27,12.85,22.29,18.02c8.03,5.15,16.54,9.56,25.5,12.87c8.94,3.35,18.24,5.78,27.76,7.13
				c4.74,0.72,9.61,1.01,14.38,1.14l7.07-0.08l3.53-0.04c1.18-0.05,2.34-0.17,3.52-0.25L1626.56,175.73z"/>
			<path class="st10" d="M1954.88,48.44c-21.94,6.73-43.61,14.1-65.13,21.93c-21.5,7.88-42.84,16.19-63.93,25.24
				c-10.54,4.54-21.04,9.19-31.42,14.2c-10.42,4.99-20.62,10.28-30.7,15.56c-10.11,5.26-20.15,10.57-30.24,15.61
				c-10.09,5.05-20.21,9.97-30.48,14.34l6.2,14.39c10.68-4.55,21.05-9.59,31.32-14.73c10.28-5.14,20.36-10.47,30.46-15.72
				c10.09-5.28,20.11-10.47,30.22-15.32c10.13-4.89,20.45-9.46,30.82-13.93c20.76-8.91,41.87-17.13,63.13-24.92
				c21.28-7.74,42.73-15.03,64.33-21.66L1954.88,48.44z"/>
			<path class="st10" d="M1534.72,141.61c-6.31-6.38-11.68-13.59-15.85-21.36l-13.8,7.41c4.94,9.2,11.23,17.59,18.47,24.91
				L1534.72,141.61z"/>
			<path class="st10" d="M1689.5,160.84c-1.27,0.53-2.56,0.98-3.84,1.44l-3.86,1.38l-3.86,1.38c-1.29,0.45-2.59,0.82-3.89,1.24
				c-2.6,0.8-5.19,1.64-7.79,2.4l-7.86,2.05c-2.61,0.75-5.27,1.17-7.91,1.75c-2.64,0.53-5.28,1.15-7.94,1.46l-7.98,1.16l-8.01,0.64
				l1,15.64l8.77-0.71l8.68-1.25c2.91-0.35,5.74-1,8.6-1.58c2.84-0.61,5.73-1.09,8.52-1.88l8.42-2.2c2.78-0.81,5.52-1.7,8.28-2.55
				c1.37-0.44,2.77-0.84,4.13-1.31l4.06-1.45l4.06-1.45c1.36-0.48,2.71-0.96,4.04-1.51L1689.5,160.84z"/>
			<path class="st10" d="M1473.93,182.93c-19.14,11.91-40,21.19-61.69,27.64c-21.69,6.46-44.2,10.23-66.77,10.92l0.46,15.66
				c24.02-0.74,47.84-4.73,70.8-11.57c22.96-6.84,45.07-16.64,65.49-29.35L1473.93,182.93z"/>
			<path class="st10" d="M1292.51,216.84l-5.59-1.29c-1.87-0.44-3.79-0.97-5.68-1.46l-5.69-1.49l-5.67-1.58l-4.25,15.08l5.82,1.62
				l5.85,1.54c1.96,0.5,3.88,1.03,5.88,1.51l6.04,1.39L1292.51,216.84z"/>
			<path class="st10" d="M1245.22,203.54c-15.87-5.18-31.53-10.97-46.88-17.44c-15.34-6.47-30.36-13.62-44.75-21.73l-7.71,13.64
				c15.05,8.49,30.59,15.87,46.37,22.53c15.79,6.65,31.85,12.59,48.1,17.89L1245.22,203.54z"/>
			<path class="st10" d="M1159.76,76.31c2.47-0.6,5.46-0.3,8.3,0.87c1.42,0.58,2.78,1.36,4.01,2.3c0.62,0.46,1.2,0.97,1.73,1.51
				c0.54,0.53,1.1,1.16,1.6,1.8c4.08,5.15,6.22,12.69,6.34,20.43l15.66-0.55c-0.06-1.26-0.08-2.52-0.17-3.78
				c-0.12-1.26-0.27-2.53-0.47-3.8c-0.39-2.53-0.95-5.07-1.71-7.58c-1.51-5.02-3.87-10.03-7.37-14.45
				c-0.88-1.11-1.79-2.15-2.84-3.18c-1.04-1.04-2.14-2-3.3-2.87c-2.32-1.76-4.85-3.21-7.55-4.32c-5.37-2.2-11.64-3.09-17.87-1.62
				L1159.76,76.31z"/>
			<path class="st10" d="M1164.5,147.31c-5.76,6.51-12.51,12.22-19.94,16.78l-2.84,1.62l-1.42,0.81c-0.49,0.26-1.01,0.5-1.52,0.75
				l-6.09,2.99c-1,0.53-2.07,0.91-3.11,1.36l-3.13,1.3l-3.13,1.3l-3.21,1.11l-3.21,1.12c-1.07,0.38-2.13,0.76-3.23,1.04l-6.54,1.88
				c-4.43,1.05-8.84,2.17-13.37,2.91c-9,1.65-18.18,2.72-27.49,3.36l1.15,15.63c9.68-0.67,19.44-1.79,29.15-3.58
				c4.87-0.8,9.69-2.01,14.52-3.16l7.18-2.06c1.2-0.32,2.38-0.73,3.56-1.15l3.53-1.23l3.53-1.23l3.46-1.43l3.46-1.44
				c1.15-0.5,2.32-0.92,3.43-1.5l6.73-3.3c0.56-0.28,1.12-0.54,1.68-0.84l1.68-0.96l3.36-1.92c8.8-5.4,16.74-12.1,23.58-19.85
				L1164.5,147.31z"/>
			<path class="st10" d="M942.03,198.32l-3.28,0.87l-3.25,0.97l-6.49,1.95l-6.42,2.17l-3.21,1.09l-3.17,1.19l-6.34,2.39l-6.26,2.6
				l-3.13,1.3l-3.09,1.4l-6.17,2.82l-6.07,3.02l-3.03,1.52c-1.01,0.51-1.99,1.07-2.99,1.61l-5.96,3.24
				c-1.96,1.12-3.9,2.29-5.85,3.43c-3.93,2.24-7.68,4.78-11.51,7.19c-1.89,1.25-3.73,2.56-5.6,3.84c-1.86,1.28-3.73,2.56-5.53,3.92
				l9.24,12.65c1.72-1.29,3.48-2.5,5.24-3.71c1.76-1.21,3.51-2.45,5.29-3.63c3.62-2.27,7.16-4.69,10.88-6.8
				c1.85-1.08,3.68-2.19,5.53-3.25l5.64-3.07c0.94-0.51,1.87-1.03,2.83-1.52l2.87-1.43l5.75-2.86l5.84-2.67l2.92-1.33l2.97-1.23
				l5.93-2.46l6.01-2.26l3.01-1.13l3.04-1.03l6.09-2.06l6.15-1.85l3.08-0.93l3.11-0.82L942.03,198.32z"/>
			<path class="st10" d="M745.68,306.58c-1.07,0.28-2.16,0.52-3.26,0.74l-3.27,0.68c-2.21,0.35-4.39,0.81-6.62,1.07
				c-4.42,0.67-8.92,1.01-13.41,1.33c-9.02,0.47-18.12,0.34-27.26-0.33c-18.28-1.31-36.62-4.45-55.06-7.9
				c-18.41-3.46-37.09-7.26-55.98-9.94c-9.43-1.43-18.91-2.52-28.4-3.55c-9.51-0.89-19.04-1.71-28.61-2.12l-0.75,15.65
				c9.27,0.39,18.53,1.19,27.78,2.05c9.25,1,18.49,2.06,27.71,3.46c18.44,2.62,36.73,6.34,55.36,9.84
				c18.6,3.48,37.49,6.74,56.84,8.13c9.66,0.71,19.44,0.86,29.25,0.35c4.91-0.34,9.82-0.71,14.72-1.45
				c2.45-0.29,4.89-0.79,7.33-1.19l3.65-0.76c1.22-0.24,2.43-0.51,3.64-0.82L745.68,306.58z"/>
			<path class="st10" d="M492.29,286.11c-12.82,0.25-25.67,1.17-38.47,2.9l2.08,15.53c12.13-1.65,24.41-2.53,36.74-2.77
				L492.29,286.11z"/>
			<path class="st10" d="M288.23,315.07c-51.34-17.17-100.36-41.48-145.42-71.55c-11.24-7.55-22.31-15.38-32.98-23.71
				c-10.69-8.3-21.19-16.86-31.22-25.93c-10.04-9.05-19.86-18.37-29.15-28.17c-9.3-9.79-18.22-19.92-26.69-30.42l-12.23,9.79
				c8.76,10.87,17.99,21.35,27.59,31.45c9.59,10.11,19.7,19.71,30.03,29.02c10.33,9.33,21.11,18.13,32.09,26.66
				c10.97,8.55,22.32,16.58,33.85,24.33c11.52,7.77,23.37,15.04,35.39,22c12,7,24.3,13.47,36.75,19.64
				c12.43,6.2,25.13,11.86,37.97,17.18c12.83,5.35,25.88,10.16,39.07,14.57L288.23,315.07z"/>
			<path class="st10" d="M379.82,336.75c-13.17-1.73-26.24-4.21-39.23-7.08l-3.42,15.29c13.39,2.97,26.9,5.53,40.53,7.32
				L379.82,336.75z"/>
			<path class="st9" d="M1245.22,203.54c8.18,2.62,16.38,5.17,24.65,7.48l-4.25,15.08c-8.48-2.36-16.89-4.97-25.27-7.66
				L1245.22,203.54z"/>
		</g>
	</g>
</g>
</svg>
